/* XPM */
static char *ff14e9e3c87b4ce8bd14080d8fcd22b9bnxNYrlQKPKJ01jU[] = {
/* columns rows colors chars-per-pixel */
"65 65 220 2 ",
"   c #3E3928",
".  c #383936",
"X  c #4A311B",
"o  c #56351F",
"O  c #5E321B",
"+  c #64361D",
"@  c #713F1E",
"#  c #4A3928",
"$  c #573A26",
"%  c #5D3923",
"&  c #523D2A",
"*  c #493F36",
"=  c #6D3621",
"-  c #623926",
";  c #643B24",
":  c #6C3B24",
">  c #6C3E29",
",  c #743B24",
"<  c #793E26",
"1  c #743D28",
"2  c #7D3E28",
"3  c #673836",
"4  c #793633",
"5  c #3E403C",
"6  c #58422E",
"7  c #4A423B",
"8  c #584535",
"9  c #6D422B",
"0  c #7C4225",
"q  c #744429",
"w  c #7C422B",
"e  c #654A33",
"r  c #7D4B32",
"t  c #6D5236",
"y  c #735537",
"u  c #7C563B",
"i  c #344845",
"p  c #3F615C",
"a  c #434442",
"s  c #4A4844",
"d  c #444D4B",
"f  c #4B4E4A",
"g  c #5B4C47",
"h  c #47504C",
"j  c #4D524C",
"k  c #52554F",
"l  c #5C564D",
"z  c #4C5350",
"x  c #485B56",
"c  c #525651",
"v  c #535A54",
"b  c #575B57",
"n  c #5B5B56",
"m  c #5A5D59",
"M  c #7B4E49",
"N  c #69554B",
"B  c #755748",
"V  c #605C54",
"C  c #6D5B54",
"Z  c #7B5E58",
"A  c #55625C",
"S  c #5C635C",
"D  c #64645D",
"F  c #5B6761",
"G  c #5B6A63",
"H  c #636660",
"J  c #656A63",
"K  c #6A6C65",
"L  c #666F6B",
"P  c #6A6F6A",
"I  c #786C65",
"U  c #7C6E69",
"Y  c #6E7167",
"T  c #63736A",
"R  c #6D736B",
"E  c #68796F",
"W  c #72756C",
"Q  c #7A736D",
"!  c #75796F",
"~  c #79796E",
"^  c #6C7471",
"/  c #647C74",
"(  c #6C7D74",
")  c #757674",
"_  c #757B72",
"`  c #7A7D73",
"'  c #757E79",
"]  c #7A7D79",
"[  c #9E1917",
"{  c #9C1918",
"}  c #B90F0F",
"|  c #A5160F",
" . c #AE150B",
".. c #B2160C",
"X. c #B6180E",
"o. c #AA1717",
"O. c #BC1514",
"+. c #B61817",
"@. c #97201E",
"#. c #B2201E",
"$. c #962928",
"%. c #8C352C",
"&. c #833533",
"*. c #843834",
"=. c #8B3B36",
"-. c #9D3532",
";. c #A42927",
":. c #A83330",
">. c #C70F0F",
",. c #CA0D0D",
"<. c #D60606",
"1. c #DA0505",
"2. c #DD0A09",
"3. c #C7100F",
"4. c #D4100F",
"5. c #C31211",
"6. c #C91110",
"7. c #C21C1A",
"8. c #E60606",
"9. c #ED0303",
"0. c #E30B0A",
"q. c #F40101",
"w. c #FF0000",
"e. c #F90A09",
"r. c #E11513",
"t. c #C12322",
"y. c #844927",
"u. c #83432A",
"i. c #89462D",
"p. c #8B4B2D",
"a. c #8D532C",
"s. c #8E592D",
"d. c #92532E",
"f. c #884834",
"g. c #944D32",
"h. c #954A36",
"j. c #895436",
"k. c #945331",
"l. c #9B5333",
"z. c #945B37",
"x. c #9C5C33",
"c. c #A25C2F",
"v. c #A15535",
"b. c #A35B36",
"n. c #AA5D39",
"m. c #A56336",
"M. c #A76836",
"N. c #A96837",
"B. c #A5613A",
"V. c #AB643A",
"C. c #AD6A3A",
"Z. c #B26C37",
"A. c #B3653C",
"S. c #B26C3C",
"D. c #BA6C3E",
"F. c #AC7138",
"G. c #B67536",
"H. c #B5723C",
"J. c #BA743E",
"K. c #BC7B3D",
"L. c #C26F39",
"P. c #C3743E",
"I. c #864D46",
"U. c #9B5847",
"Y. c #9A755C",
"T. c #B86741",
"R. c #BB6D41",
"E. c #A2724D",
"W. c #B57142",
"Q. c #BC7341",
"!. c #BD7B41",
"~. c #88756B",
"^. c #C56F46",
"/. c #C27443",
"(. c #CA7747",
"). c #C47B44",
"_. c #CA7D46",
"`. c #CC754A",
"'. c #CD7D49",
"]. c #D37F4C",
"[. c #6E8076",
"{. c #6E887E",
"}. c #7D8176",
"|. c #74857B",
" X c #77857B",
".X c #7D837A",
"XX c #BE813E",
"oX c #CA823E",
"OX c #BF8041",
"+X c #818277",
"@X c #82857A",
"#X c #85897E",
"$X c #8A887D",
"%X c #928279",
"&X c #B78567",
"*X c #BE9074",
"=X c #C58343",
"-X c #CC8246",
";X c #CB8A45",
":X c #CE8149",
">X c #CE8A49",
",X c #D28346",
"<X c #D28C46",
"1X c #D98C47",
"2X c #D3844A",
"3X c #D8854E",
"4X c #D58A4C",
"5X c #DA8C4E",
"6X c #D5904C",
"7X c #DC914C",
"8X c #DA8750",
"9X c #DC8B51",
"0X c #DF9151",
"qX c #E08F54",
"wX c #E39254",
"eX c #7C8C83",
"rX c #848C82",
"tX c #868886",
"yX c #8A9187",
"uX c #A5A5A5",
/* pixels */
"w.w.w.w.w.w.w.w.w.w.w.w.w.w.w.w.w.w.w.w.w.w.w.w.w.w.w.w.w.w.w.w.w.w.w.w.w.w.w.w.w.w.w.w.w.w.w.w.w.w.w.w.w.w.w.w.w.w.w.w.w.w.w.w.w.",
"w.w.w.w.w.w.w.w.w.w.w.w.w.w.w.w.w.w.w.w.w.w.w.w.w.w.w.w.w.w.w.w.w.w.w.w.w.w.w.w.w.w.w.w.w.w.w.w.w.w.w.w.w.w.w.w.w.w.w.w.w.w.w.w.w.",
"w.w.w.w.w.w.w.w.w.w.w.w.w.w.w.w.w.w.w.w.w.w.w.w.w.w.w.w.w.w.w.w.w.w.w.w.w.w.w.w.w.w.w.w.w.w.w.w.w.w.w.w.w.w.w.w.w.w.w.w.w.w.w.w.w.",
"w.w.w.w.w.w.w.w.w.w.w.w.w.w.w.w.w.w.w.w.w.w.w.w.w.w.w.w.w.w.w.w.w.w.w.w.w.w.w.w.w.w.w.w.w.w.w.w.w.w.w.w.w.w.w.w.w.w.w.w.w.w.w.w.w.",
"w.w.w.w.w.w.w.w.w.w.w.w.w.w.w.w.w.w.w.w.w.w.w.w.w.w.w.w.w.w.w.w.w.w.w.w.w.w.w.w.w.w.w.w.w.w.w.w.w.w.w.w.w.w.w.w.w.w.w.w.w.w.w.w.w.",
"w.w.w.w.w.w.w.w.w.w.w.w.w.w.w.w.w.w.w.w.w.w.w.w.w.w.w.w.w.w.w.w.w.w.w.w.w.w.w.w.w.w.w.w.w.w.w.w.w.w.w.w.w.w.w.w.w.w.w.w.w.w.w.w.w.",
"w.w.w.w.w.w.w.w.w.w.w.w.w.w.w.w.w.w.w.w.w.w.w.w.w.w.w.w.w.w.w.w.w.w.w.w.w.w.w.w.w.w.w.w.w.w.w.w.w.w.w.w.w.w.w.w.w.w.w.w.w.w.w.w.w.",
"w.w.w.w.w.w.w.w.w.w.w.w.w.w.w.w.w.w.w.w.w.w.w.w.w.w.w.w.w.w.w.w.w.w.w.w.w.w.w.w.w.w.w.w.w.w.w.w.w.w.w.w.w.w.w.w.w.w.w.w.w.w.w.w.w.",
"w.w.w.w.w.w.w.w.w.w.w.w.w.w.w.w.w.w.w.w.w.w.w.w.w.w.w.w.w.w.w.w.w.w.w.w.w.w.w.w.w.w.w.w.w.w.w.w.w.w.w.w.w.w.w.w.w.w.w.w.w.w.w.w.w.",
"w.w.w.w.w.w.w.w.w.w.w.w.w.w.w.w.w.w.w.w.w.w.w.w.w.w.w.w.9.q.9.9.9.9.9.w.w.w.w.w.w.w.w.w.w.w.w.w.w.w.w.w.w.w.w.w.w.w.w.w.w.w.w.w.w.",
"w.w.w.w.w.w.w.w.w.w.w.w.w.w.w.w.w.w.w.w.w.w.w.w.w.w.q.-.Q U U U U U Q h.9.w.w.w.w.w.w.w.w.w.w.w.w.w.w.w.w.w.w.w.w.w.w.w.w.w.w.w.w.",
"w.w.w.w.w.w.w.w.w.w.w.w.w.w.w.w.w.w.w.w.w.w.w.w.w.w.+.[.yXrXrXrXtX] eX/ $.w.q.w.w.w.w.w.w.w.w.w.w.w.w.w.w.w.w.w.w.w.w.w.w.w.w.w.w.",
"w.w.w.w.w.w.w.w.w.w.w.w.w.w.w.w.w.w.w.w.w.w.w.w.w.w.;./ ~ ` ` ` _ J K G %.w.w.w.w.w.w.w.w.w.w.w.w.w.w.w.w.w.w.w.w.w.w.w.w.w.w.w.w.",
"w.w.w.w.w.w.w.w.w.w.w.w.w.w.w.w.w.w.w.w.w.w.w.w.q.w.5.D }.` ` }.] H P m <.w.w.w.w.w.w.w.w.w.w.w.w.w.w.w.w.w.w.w.w.w.w.w.w.w.w.w.w.",
"w.w.w.w.w.w.w.w.w.w.w.w.w.w.w.w.w.w.w.w.q.w.w.w.w.w.w.M [.~ ` _ ` K P k ,.w.w.w.w.w.w.w.w.w.w.w.w.w.w.w.w.w.w.w.w.w.w.w.w.w.w.w.w.",
"w.w.w.w.w.w.w.w.w.w.w.w.w.w.w.w.w.w.9.q.w.w.w.w.8.:.=.g R }.W ` ` W W v N :.4.q.w.w.w.9.q.w.w.w.w.w.w.w.w.w.w.w.w.w.w.w.w.w.w.w.w.",
"w.w.w.w.w.w.w.w.w.w.w.w.w.w.w.w.w.2.C f.9.w.>.:.I eX( f K W K W ] ` W c eXeXW M X.w.r.I -.w.w.w.w.w.w.w.w.w.w.w.w.w.w.w.w.w.w.w.w.",
"w.w.w.w.w.w.w.w.w.w.w.w.w.w.w.w.0.Z  X( &.#.Y {._ W P f D ] W ` ! ` K F @XY ^ eXJ $.~.yX|.-.w.w.w.w.w.w.w.w.w.w.w.w.w.w.w.w.w.w.w.",
"w.w.w.w.w.w.w.w.w.w.w.w.w.w.w.2.I  X~ _ T F .X` _ _ _ m J @X@X.X}.` J R }.W P W H T yX$X@X( -.q.w.w.w.w.w.w.w.w.w.w.w.w.w.w.w.w.w.",
"w.w.w.w.w.w.w.w.w.w.w.w.w.w.<.C |.W ! W ` K m .X_ _ R c j J K K K K v J _ _ ) W c .X#X#X+X+XE #.w.w.w.w.w.w.w.w.w.w.w.w.w.w.w.w.w.",
"w.w.w.w.w.w.w.w.w.w.w.w.w.w.q.=.R W ! ! ! ] S H P N $ 9 r U.r j.U.j.f.9 e H P V ! #X+X}..XrXC 4.w.w.q.w.w.w.w.w.w.w.w.w.w.w.w.w.w.",
"w.w.w.w.w.w.w.w.w.w.w.w.w.w.w.q.3 T ` W W ] R * e u.a.b.b.n.z.B.R.V.C.V.x.r & c rX+X+X+X}.S +.w.w.w.w.w.w.w.w.w.w.w.w.w.w.w.w.w.w.",
"w.w.w.w.w.w.w.w.w.w.w.w.w.w.w.>.D S Y ! ! W 7 O x.T.x.V.V.T.x.W.`.W.R.T.T.B.p.9 m W ] ] n T *.q.w.w.w.w.w.w.w.w.w.w.w.w.w.w.w.w.w.",
"w.w.w.w.w.w.w.w.w.w.w.w.w.w.9.I.rX! v R H 7 9 a.B.T.C.Q.Q.).V.!.9X'.'./._.B.B.B.% k D v R rXK @.w.w.w.w.w.w.w.w.w.w.w.w.w.w.w.w.w.",
"w.w.w.w.w.w.w.w.w.w.w.w.w.w.$.|.~ ~ H h 7 q x.k.C.).Q._._.2XW.=XqX2X2X:X3XW.T.Q.b.- i W #X.X.XC <.w.w.w.w.w.w.w.w.w.w.w.w.w.w.w.w.",
"w.w.w.w.w.w.w.w.w.w.w.w.w.1.C ` ! }.` 7 , B.N.x.Q.-X_.:X2X4XJ.>XwX4X4X2X8X!.W.'.W.B.> H .X#X+XE $.w.w.w.w.w.w.w.w.w.w.w.w.w.w.w.w.",
"w.w.w.w.w.w.w.w.w.w.w.w.w.;.x D W +XD + b.C.J.N.).4X:X4X4X7XK.>XwX9X2X:X8X!.!.8XQ./.x.e ! }.W S f 8.w.w.w.w.w.w.w.w.w.w.w.w.w.w.w.",
"w.w.w.w.w.w.w.w.w.w.w.w.q.U.[.H K W 8 a.C.W.).C._.4X:X4X3X9X!.>XwX4X2X4X4X).=X9X_.!.T.k.l J S K F O.w.w.w.w.w.w.w.w.w.w.w.w.w.w.w.",
"w.w.w.w.w.w.w.w.w.w.w.w.r.W ! ` ` l 0 m.S._.-XH.-X4X4X6X4X9XJ.>XwX2X2X2X2X).!.6X_.).Q.B.$ S ` W E f.w.w.w.w.w.w.w.w.w.w.w.w.w.w.w.",
"w.w.w.w.w.w.w.w.w.w.w.w.O.W W Y ^ N a.Z./.:X2XH.6X4X9X9X2X3XJ.>X9X2X-X-X8X).!.6X-X_.!.D.j.K W W _ I.9.w.w.w.w.w.w.w.w.w.w.w.w.w.w.",
"w.w.w.w.w.w.w.w.w.w.w.w.{ ^ W W K N N.J._.:X2XH.>X4X9X4X2X2XJ.>X4X2X:X:X2X).XX6X_.).).H.U.D W W _ B <.w.w.w.w.w.w.w.w.w.w.w.w.w.w.",
"w.w.w.w.w.w.w.w.w.q.8.e.f.G H H j q J.).'.2X9XK.6X5X4X4X:X4XJ.>X0X2X2X2X7X=XXXwX:X,X).).N.6 m S S v t.e.0.w.w.w.w.w.w.w.w.w.w.w.w.",
"w.w.w.w.w.w.w.q.w.1.g U @X#XtXyXv y.2X:X2X5X9XK.6X9X4X4X2X4XJ.;X0X4X4X4XwX=X=XwX2X4X2X:XS.6 R #X_ rX%X~.V ,.w.w.w.w.w.w.w.w.w.w.w.",
"w.w.w.w.w.w.w.w.w.1.H ' W K K _ z s.,X_.2X4X9XQ.6X9X-X2X2X2X).>X0X8X5X5X0X=X=XwX:X4X4X:X).e L ` .X#XR _ x >.w.w.w.w.w.w.w.w.w.w.w.",
"w.w.w.w.w.w.w.w.w.<.Y +X` .X! W c s.,X:X4X4X9XJ.6X9X2X2X-X2XK.;X0X5X5X2X9X).;XwX2X:X2X2X-Xy ^ _ ] }.] ` v >.w.q.w.w.w.w.w.w.w.w.w.",
"w.w.w.w.w.w.w.w.w.<.J .X` +X@X_ j s.,X'.4X4X4XK.6X9X2X-X,X4XJ.=X9X5X7X4X4X/.;XwX:X-X:X2X<Xy ) ! ! }.` ` v >.w.w.w.w.w.w.w.w.w.w.w.",
"w.w.w.w.w.w.w.w.w.1.V _ W W ! ` k s.,X_.2X2X3XJ.6X8X:X:X:X2XQ.;X5X4X9X3X2X!.;XwX-X:X,X2X1Xy ' ] ! ` ! W z 3.w.w.w.w.w.w.w.w.w.w.w.",
"w.w.w.w.w.w.w.w.w.1.n T H J K W f s.'._.].2X3XW.6X8X-X:X:X2XJ.;X5X2X9X2X3X/.;X9X'.-X:X:X7Xt R ! J Y J S h 6.w.w.w.w.w.w.w.w.w.w.w.",
"w.w.w.w.w.w.w.w.w.2.s j f f j c i s.,X'.,X2X3XW.6X4X_.-X:X2XC.OX9X,X2X2X2X!.;X9X_.-X-X2X6Xe d z j j f s a 6.w.w.w.w.w.w.w.w.w.w.w.",
"w.w.w.w.w.w.w.w.w.w.1.8.4 ( rX` j a.,X].2X:X2XC.>X2X)._._.2XH.=X8X'.2X,X].Q.OX5X).'.'.-X<Xe J .X.Xv o.8.2.q.w.w.w.w.w.w.w.w.w.w.w.",
"w.w.w.w.w.w.w.w.w.w.w.w.*.eXyX@Xl a.2X'.,X:X2XC.;X2X_.'.'.2XS.=X8X_.'.:X,XH.!.3X)._.'.'.<Xe }.}.W A 5.w.w.w.w.w.w.w.w.w.w.w.w.w.w.",
"w.w.w.w.w.w.w.w.w.w.w.w.&./ +X+Xv s.,X-X,X,X,XQ.;X,X'.:X:X2XS.=X8X_.,X'.].Q.=X<XP.L.P./.,Xt ' W ` S 5.w.e.w.w.w.w.w.w.w.w.w.w.w.w.",
"w.w.w.w.w.w.w.w.w.w.w.w.4 T ` +Xk s.,X-X:X:X2XJ.4X2X_.,X:X,XQ.-X]._.'._.'.!.=X2XW.&X*X&X-Xy ^ W Y A 5.w.w.w.w.w.w.w.w.w.w.w.w.w.w.",
"w.w.w.w.w.w.w.w.w.w.w.w.&.T ~ ~ k a.'.'.:X'.,XH.-X,X_.-X:X2XH.=X]._.'._.:XQ.=X:Xu tXuX%XoXy L K S v O.w.w.w.w.w.w.w.w.w.w.w.w.w.w.",
"w.w.w.w.w.w.w.w.w.w.w.w.&.T K J f s.'._.'.-X,XN.=X2X'.'.,X2XC.!.3X_.,X'.2XQ.OX,X$ f tXg Z.e G Y H v 6.w.w.w.w.w.w.w.w.w.w.w.w.w.w.",
"w.w.w.w.w.w.w.w.w.q.O.+.3 j k d . z.,X_.'._.,XC.;X4X:X-X:X3XH.=X5X_.,X'.2XJ.OX!.~.) tXuXE.% h c v d $.7.+.9.w.w.w.w.w.w.w.w.w.w.w.",
"w.w.w.w.w.w.w.w.w.<.v |. X.X.X}.v s.2X_._._.:XS.>X9X'.'.:X3XH.>X9X_.'.,X2XR.=XF.) s . ^ Y.$ R ] _ W R R x 5.w.w.w.w.w.w.w.w.w.w.w.",
"w.w.w.w.w.w.w.w.w.1.D @X` ] @X.Xj s.:X_./._.,XC.:X8X:X,X,X2XV.!.5X_.-X-X2X!.=XM.m m 5 c B $ ' K W ` +X+Xv >.w.w.w.w.w.w.w.w.w.w.w.",
"w.w.w.w.w.w.w.w.w.<.D ] ~ .X! W j s._._._.)._.m.!.3X'.'.'.3Xm.S.5X).'.'.,XC.oXN.l tX] ) $ & ) H K @XrX` v 5.w.w.w.w.w.w.w.w.w.w.w.",
"w.w.w.w.w.w.w.w.w.<.K .X` @XW W j a.'.)./.Q.(.x.!.3X).'._.,XN.J.3XP.)._.'.M.H.D.X f V * q 6  X~ ! ` ` ~ v 6.w.w.w.w.w.w.w.w.w.w.w.",
"w.w.w.w.w.w.w.w.w.1.H +X~ +X! R j a.(././.D.T.d.J.]./._.(._.m.!.].J.)./._.B.F.J.k.p.y.c.G.6 |.+X~.+X~ W b 6.w.q.w.w.w.w.w.w.w.w.w.",
"w.w.w.w.w.w.w.w.w.<.D +X` }.Y K f p.^./.D.A.D.p.J.`.D.(./.(.x.S.`.Z.D.D./.b.N.J.D.'.J.D.K.6 ^ @X|.` ` W j 5.w.w.w.w.w.w.w.w.w.w.w.",
"w.w.w.w.w.w.w.w.w.2.h G S v v v a j.^.D.n.A.A.y.J.^.A./.D.^.x.C.P.m.A.A.D.k.m.A.x.V.l.l.Z.& f n v S v i i 6.w.w.w.w.w.w.w.w.w.w.w.",
"w.w.w.w.w.w.w.w.w.q.+.O.3 F W Y f w n.b.b.b.n.y.H.T.n.D.A.D.d.Z.L.v.b.n.A.d.x.n.p.l.y.a.N.# v W W v $.} +.8.w.w.w.w.w.w.w.w.w.w.w.",
"w.w.w.w.w.w.w.w.w.w.w.w.&.E ` @Xc , v.l.v.l.v.0 Z.T.v.A.n.A.p.N.Z.l.b.b.n.p.x.b.y.i.w p.c.& }.` ` S ,.w.w.w.w.w.w.w.w.w.w.w.w.w.w.",
"w.w.w.w.w.w.w.w.w.w.w.w.&.E W ` l , g.g.g.g.l.@ b.n.l.v.v.n.p.b.n.g.l.l.l.u.a.l., 0 0 w b.6 |.W ! A O.w.w.w.w.w.w.w.w.w.w.w.w.w.w.",
"w.w.w.w.w.w.w.w.w.w.w.w.4 [.W ` l - i.y.i.i.u.+ l.l.i.g.l.l.u.l.l.u.y.i.p., 0 p.@ < < 0 y.& _ W _ F 5.w.w.w.w.w.w.w.w.w.w.w.w.w.w.",
"w.w.w.w.w.w.w.w.w.w.w.w.*.[.W R j - %.0 u.w < + p.g.u.i.g.i.0 g.h.< 0 *.u., 0 i., , , , 0 # T W ` J 5.w.w.w.w.w.w.w.w.w.w.w.w.w.w.",
"w.w.w.w.w.w.w.w.w.w.w.w.*.^ K H f - 2 1 , , , O i.f.2 *.i.u.< k.h., , 2 %.+ = 2 = , , = 2 & K ! @XK O.w.w.w.w.w.w.w.w.w.w.w.w.w.w.",
"w.w.w.w.w.w.w.w.w.w.w.w.4 p v x i $ : ; ; ; - o 9 w > > 1 > - r 2 - ; : 9 o $ > o % % $ +   x A G x O.w.w.w.w.w.w.w.w.w.w.w.w.w.w.",
"w.w.w.w.w.w.w.w.w.w.w.w.O.{ { { [  ......... .| X.X...X.......X.X....... . . ... . . . . .| { { { $.8.w.w.w.w.w.w.w.w.w.w.w.w.w.w.",
"w.w.w.w.w.w.w.w.w.w.w.w.w.w.w.w.w.w.w.w.w.w.w.w.w.w.w.w.w.w.w.w.w.w.w.w.w.w.w.w.w.w.w.w.w.w.w.w.w.w.w.w.w.w.w.w.w.w.w.w.w.w.w.w.w.",
"w.w.w.w.w.w.w.w.w.w.w.w.w.w.w.q.q.w.w.q.w.w.w.w.w.q.w.w.w.q.w.q.w.w.w.q.w.q.w.w.w.w.q.w.w.w.q.w.w.w.w.w.w.w.w.w.w.w.w.w.w.w.w.w.w.",
"w.w.w.w.w.w.w.w.w.q.w.w.w.w.w.w.w.w.w.w.w.w.w.w.w.w.w.w.w.w.w.w.w.w.w.w.w.w.w.w.w.w.w.w.w.w.w.w.w.w.w.w.w.w.w.w.w.w.w.w.w.w.w.w.w.",
"w.w.w.w.w.w.w.w.w.w.w.w.w.w.w.w.w.w.w.w.w.w.w.w.w.w.w.w.w.w.w.w.w.w.w.w.w.w.w.w.w.w.w.w.w.w.w.w.w.w.w.w.w.w.w.w.w.w.w.w.w.w.w.w.w."
};
