/* XPM */
static char *_51f5156b3914237aafbf7272325fa2ae9xV1UwJYMIt5bEt[] = {
/* columns rows colors chars-per-pixel */
"65 65 99 2 ",
"   c #FF0000",
".  c #FE0C00",
"X  c #FE1100",
"o  c #FE1B00",
"O  c #FD2300",
"+  c #FD2C00",
"@  c #FC3200",
"#  c #FC3A00",
"$  c #FB4600",
"%  c #FB4C00",
"&  c #FB5200",
"*  c #FB5B00",
"=  c #FA6400",
"-  c #F96D00",
";  c #F97400",
":  c #F97A00",
">  c #F88400",
",  c #F78F00",
"<  c #F88C00",
"1  c #F79100",
"2  c #F89201",
"3  c #F79B00",
"4  c #F89F02",
"5  c #F7A500",
"6  c #F7AB00",
"7  c #F6B500",
"8  c #F6BB01",
"9  c #F5C402",
"0  c #F5CC01",
"q  c #F4D502",
"w  c #F5DB02",
"e  c #F7D708",
"r  c #F7DB0B",
"t  c #F8DE0F",
"y  c #F7DD10",
"u  c #F8DE13",
"i  c #F4E000",
"p  c #F4E100",
"a  c #F4E400",
"s  c #F4E500",
"d  c #F5E402",
"f  c #F4E900",
"g  c #F7E20C",
"h  c #F8E60E",
"j  c #F7E110",
"k  c #F8E211",
"l  c #F8E013",
"z  c #F9E017",
"x  c #F9E117",
"c  c #FAE117",
"v  c #F8E415",
"b  c #F8E615",
"n  c #FAE715",
"m  c #F9E716",
"M  c #F9E815",
"N  c #F9E915",
"B  c #FAE815",
"V  c #F9E018",
"C  c #F9E118",
"Z  c #F9E318",
"A  c #FAE619",
"S  c #FAE71A",
"D  c #FAE71B",
"F  c #FAE21C",
"G  c #FBE31C",
"H  c #FAE31D",
"J  c #FAE71C",
"K  c #FBE41F",
"L  c #FBE71F",
"P  c #FAE918",
"I  c #FAEA1B",
"U  c #FAEC1B",
"Y  c #FBEC1B",
"T  c #FBED1B",
"R  c #FBEA1D",
"E  c #FBEE1F",
"W  c #FCF01E",
"Q  c #FBE420",
"!  c #FBE720",
"~  c #FCE623",
"^  c #FCE724",
"/  c #FDE725",
"(  c #FCE823",
")  c #FBEE21",
"_  c #FCE824",
"`  c #FCE924",
"'  c #FDE826",
"]  c #FDE926",
"[  c #FEEA28",
"{  c #FCF021",
"}  c #FCF223",
"|  c #FCF323",
" . c #FDF324",
".. c #FDF527",
"X. c #FDF627",
"o. c #FEF728",
"O. c #FEF729",
"+. c #FEF82A",
"@. c #FFF82A",
/* pixels */
"                                                                                                                                  ",
"                                                                                                                                  ",
"                                                                                                                                  ",
"                                                                                                                                  ",
"                                                                                                                                  ",
"                                                                                                                                  ",
"                                                                                                                                  ",
"                                                                                                                                  ",
"                                                                                                                                  ",
"                                                                                                                                  ",
"                                                                                                                                  ",
"                                                                                                                                  ",
"                                    + = 3 6 5 5 5 5 5 5 5 5 5 5 5 5 5 5 5 5 5 6 5 1 * o                                           ",
"                                    # < q s p s p p p w w w w p p w w w p p s p s 0 : +                                           ",
"                              . O @ = 3 0 w e e e e e r t r r t e r r r r e w e w 9 , * @ o .                                     ",
"                              o & : 3 7 q e r j C v K C G C l l Z Z K l l C C r e q 7 3 ; $ X                                     ",
"                              @ : 8 0 0 q e y F G Q ' ' ' ' ' ' ' ' ' ' ^ ^ C u r e q q 6 - O                                     ",
"                        . + # = 3 0 w r r y y C ~ ~ ' ' ( ( ' [ ' ( ' ^ ~ C C C u y r e 9 < * @ O .                               ",
"                        o & > 5 7 0 y y K C C j v l P P I P T P T Z D C l l u l Q F u e 0 7 3 : $ o                               ",
"                        @ : 8 q q r y F ( Q l y r l n v v M v P P P n n l g u l ^ ^ F y e r q 7 - O                               ",
"                    + % = 3 0 w r y l Z ^ ` I b M I I I T T T T P T T I I v v I Q ~ F u u e w 9 , * $ X                           ",
"                    & 4 4 7 0 e y K Q K C Z I ) W { { X.{ { X.{ { { { { { { W I I F F ~ F u q 0 7 4 1 o                           ",
"                    : s q q q e u ' ` K l K ) X.+.+.+.o.+.X.X.X.X.+.@.+.+.+.+.) Z C ~ ^ ^ u e q q q q @                           ",
"                    : f q q e y C Q Q I U )  .+.+.+.+.X.W T T T U { O.+.+.+.+.{ ) I I Q G u r e q w w @                           ",
"                    : f q r v u u b C I { X.X.+.+.+.+.{ v h g r r I  .+.+.+.+.+. .) I v l u l u e w w @                           ",
"                    : f e u C F u r b ) +.+.+.+.+.+.+.W h w w q q g ) +.+.+.+.+.O.X.I j t C F C y w q @                           ",
"                    : f e u Q K l g l ) +.+.+.+.+.+.o.W h w w w q h U +.+.+.+.+.+.O.) v g C Q Q j w q @                           ",
"                    : f e v ( ^ C b M W +.+.+.+.+.+.+.U h w w w w v { +.+.+.+.+.+.O.T M v I ^ Q y w w @   .                       ",
"                    : s e v ' ' Q M I { O.+.+.+.+.o.X.T h w w w p h { O.+.+.+.O.O.X.W M v Q ' ' C e q @                           ",
"                    : s e C ' [ Q M U { X.X.{ U N W I M g w p w w g h U U M I T X.X.{ Z M I ' ' v e q @                           ",
"                    : s e C ' ' I M I { O.{ M g g g g s p w p w p p w g g w r M  .+.{ M Z T ' ' j e q @                           ",
"                .   : s e v ' [ ( M I { X.W M s p w w p w w w w w w w w w q e M { +.{ U v ~ ' ^ v w q @                           ",
"                    : s e C ^ [ I N U { X. .W N h p w w w w p w w w w q w r M R  .X.{ M I K [ ' l w q @   .                       ",
"                    : s e C ' ' T N U W o.o. .W I h w w w w w w w w q q g I { X.O.X.) I I I ' ~ l w q @                           ",
"                    : s e C [ [ K M U  .o.+.X. .W h w w p p p w w w q q t T X.X.X.X.T U M ( ' ~ l w q @                           ",
"                    : s e C ^ ' K v U W +. .W N h w w w h M N N v g w q r l P T O.O.) M v T ' ( u w q @                           ",
"                    : s e u [ [ P n R  .X.W N h w w q q M W { X.{ M s w w q t v { +.U I v R ' ~ c w w @                           ",
"                .   : s e v ^ [ P C v T X.W h w w w r l ) +.+.+.o.U v w w q q l ) X.{ M C K ' ^ u r q +                           ",
"                    : f e v ^ Q P g P ) X.W P p w g v P { +.+.+.o.{ U M g w q v { X.T v l C ^ ^ u w q @                           ",
"                    : f e u F F u r v ) X.W h w g P { X.+.+.+.+.+.o.O.{ v w q l { o.U M r l G F u w w @                           ",
"                    : f p y F C u r v T X.W M s h W +.+.+.+.+.+.+.+.+.+.I t e l { { U l u l C C e w w @                           ",
"                    : f e r u u C D P K K T P T { ) +.+.+.+.+.+.+.+.+.+.) I v P ) R R I C C u u e w w @                           ",
"                    : f w e r y G ~ ~ D M ( T  .X. .+.O.+.+.+.+.+.+.+.+.X. . .T D D G ^ Q C u r w w w @                           ",
"                    = 9 8 0 q y C ~ ~ K C Z )  . .X.X.O.O.X.X.X.X.X.X.o. . . .R D v Q ^ Q v r e 9 8 7 +                           ",
"                    # - : 5 0 r u u F F ~ ~ Z T U I ) ) { ) W W U { ) T U I P R K K G C l r t 9 5 : = o                           ",
"                    . o $ > 0 r e r u F ' R l t j v M M M M v I M M M v l g u P K ^ G u r e w 8 : @ o                             ",
"                        O * 3 7 9 e r C G R l u j v M M Z I I v I Z I I C u r C K ( u r q 9 7 < & o                               ",
"                        X # & ; 5 0 e r u u l l l K Q ' R ( I ` I Q ( K I C l C c l t e 9 3 - % @ .                               ",
"                          . X # > 0 w q q r y K I ^ [ ^ ' [ [ ' ' ' [ [ ' Q F u y r e e 8 : @ X .                                 ",
"                              O = 5 7 9 q w y C F Q Q ^ ` Q ` Q Q ' Q ' F F C y r q 9 7 2 & o                                     ",
"                              X @ & : 5 0 w w r y y y y y y j y j l y y y r r w w 0 4 : % @ .                                     ",
"                                . . % 1 0 w w w w w w w w w w w w w w w w w w w p 9 : # . .                                       ",
"                                    @ : 9 q q 0 0 0 0 0 0 0 0 0 0 0 0 0 0 0 0 q q 7 - +                                           ",
"                                      . . X . X X X . X X X . X X . X X X X X X . X .                                             ",
"                                                                                                                                  ",
"                                                                                                                                  ",
"                                                                                                                                  ",
"                                                                                                                                  ",
"                                                                                                                                  ",
"                                                                                                                                  ",
"                                                                                                                                  ",
"                                                                                                                                  ",
"                                                                                                                                  ",
"                                                                                                                                  ",
"                                                                                                                                  "
};
