/* XPM */
static char *b24667a10e644926f71a9ae3a7eec059K7cl8ZS1EsaMW5eG[] = {
/* columns rows colors chars-per-pixel */
"65 65 132 2 ",
"   c #010101",
".  c #373738",
"X  c #3A3A3B",
"o  c #4A4A4B",
"O  c #504F51",
"+  c #69686B",
"@  c #6F6E71",
"#  c #FF0000",
"$  c #F4040D",
"%  c #F90309",
"&  c #EC0713",
"*  c #E5091A",
"=  c #EF091B",
"-  c #F30714",
";  c #F20817",
":  c #F00819",
">  c #DD0C22",
",  c #D60E28",
"<  c #C71439",
"1  c #DA163F",
"2  c #E00B20",
"3  c #EB0C22",
"4  c #E60F2A",
"5  c #E4102E",
"6  c #E41131",
"7  c #BF1742",
"8  c #BA1946",
"9  c #B41A4B",
"0  c #AA1F59",
"q  c #B21C50",
"w  c #A4215D",
"e  c #A92059",
"r  c #992569",
"t  c #862D7E",
"y  c #932870",
"u  c #BC2260",
"i  c #AA2B7A",
"p  c #BD2975",
"a  c #B82C7D",
"s  c #D91742",
"d  c #D61947",
"f  c #D81843",
"g  c #D31B4B",
"h  c #CD1D54",
"j  c #CC1F59",
"k  c #C9215E",
"l  c #C42466",
"z  c #5B399E",
"x  c #7E2E82",
"c  c #7E3087",
"v  c #77328D",
"b  c #7A318A",
"n  c #6B3697",
"m  c #6D389D",
"M  c #713594",
"N  c #5E3AA4",
"B  c #573EAE",
"V  c #5A3DAC",
"C  c #5F3FB2",
"Z  c #613BA6",
"A  c #613DAA",
"S  c #663FB1",
"D  c #6540B5",
"F  c #6A41B6",
"G  c #6244BE",
"H  c #6C43BC",
"J  c #6F45C1",
"K  c #6A49CD",
"L  c #7246C5",
"P  c #7B45C2",
"I  c #7647C8",
"U  c #7549CD",
"Y  c #7A49CD",
"T  c #6C4DD7",
"R  c #724AD1",
"E  c #7B4CD6",
"W  c #7D4EDB",
"Q  c #7150DF",
"!  c #7F4BE6",
"~  c #7C52E5",
"^  c #7D54ED",
"/  c #7F57F2",
"(  c #7E58F6",
")  c #7D59F9",
"_  c #B52F84",
"`  c #AC3391",
"'  c #A8379A",
"]  c #9E3CAB",
"[  c #A23AA4",
"{  c #A13DAB",
"}  c #9841B6",
"|  c #9543BC",
" . c #9843BE",
".. c #8C47C9",
"X. c #8C49CD",
"o. c #9346C5",
"O. c #8B4BD4",
"+. c #894EDA",
"@. c #824EE7",
"#. c #814CEC",
"$. c #8352E4",
"%. c #8454EB",
"&. c #8956EF",
"*. c #854FF1",
"=. c #8355F3",
"-. c #8B56F3",
";. c #8258F7",
":. c #8C58F5",
">. c #8D56FA",
",. c #845AFC",
"<. c #8D5AFB",
"1. c #9059F7",
"2. c #925CFE",
"3. c #8E62E3",
"4. c #9B76E4",
"5. c #9D77E5",
"6. c #B4B4B4",
"7. c #B5B4B7",
"8. c #AA8BE8",
"9. c #AB8CE8",
"0. c #B296EA",
"q. c #B398EA",
"w. c #BCA3EC",
"e. c #CDBBF0",
"r. c #CEBCF1",
"t. c #D7C9F3",
"y. c #D8C9F3",
"u. c #DFD3F6",
"i. c #E0D5F7",
"p. c #E5E5E4",
"a. c #FFFEFE",
"s. c white",
/* pixels */
"# # # # # # # # # # # # # # # # # # # # # # # # # # # # # # # # # # # # # # # # # # # # # # # # # # # # # # # # # # # # # # # # # ",
"# # # # # # # # # # # # # # # # # # # # # # # # # # # # # # # # # # # # # # # # # # # # # # # # # # # # # # # # # # # # # # # # # ",
"# # # # # # # # # # # # # # # # # # # # # # # # # # # # # # # # # # # # # # # # # # # # # # # # # # # # # # # # # # # # # # # # # ",
"# # # # # # # # # # # # # # # # # # # # # # # # # # # # # # # # # # # # # # # # # # # # # # # # # # # # # # # # # # # # # # # # # ",
"# # # # # # # # # # # # # # # # # # # # # # # # # # # # # # # # # # # # # # # # # # # # # # # # # # # # # # # # # # # # # # # # # ",
"# # # # # # # # # # # # # # # # # # # # # # # # # # # # # # # # # # # # # # # # # # # # # # # # # # # # # # # # # # # # # # # # # ",
"# # # # # # # # # # # # # # # # # # # # # # # # # # # # # # # # # # # # # # # # # # # # # # # # # # # # # # # # # # # # # # # # # ",
"# # # # # # # # # # # # # # # # # # # # # # # # # # # # # # # # # # # # # # # # # # # # # # # # # # # # # # # # # # # # # # # # # ",
"# # # # # # # # # # # # # # # # # # # # # # # # # # # # # # # # # # # # # # # # # # # # # # # # # # # # # # # # # # # # # # # # # ",
"# # # # # # # # # # # # # # # # # # # # # # # # # # # # # # # # # # # # # # # # # # # # # # # # # # # # # # # # # # # # # # # # # ",
"# # # # # # # # # # # # # # # # # # # # # # # # # # # # # # # # % # # # # # # # # # # # # # # # # # # # # # # # # # # # # # # # # ",
"# # # # # # # # # # # # # # # # # # # # # # # # # # % # # # # # # # # # # # % # # # # # # # # # # # # # # # # # # # # # # # # # # ",
"# # # # # # # # # # # # # # # # # # # # # # # # # # # # - 5 f k j g s 3 % # # # # # # # # # # # # # # # # # # # # # # # # # # # # ",
"# # # # # # # # # # # # # # # # # # # # # % # # $ d a ] O.%.%.;.( =.%.+.o.' l 4 # # # # # # # # # # # # # # # # # # # # # # # # # ",
"# # # # # # # # # # # # # # # # # # # % # # : l | %.,.,.<.<.2.2.2.2.2.2.<.,.;.+.[ g # # # # # # # # # # # # # # # # # # # # # # # ",
"# # # # # # # # # # # # # # # # # # # # # k X.( <.2.2.2.2.2.2.2.2.2.2.2.2.2.2.2.;.%.] 6 # # # # # # # # # # # # # # # # # # # # # ",
"# # # # # # # # # # # # # # # # # # # 4 { ) <.2.2.2.2.2.<.2.2.2.2.2.2.2.2.2.2.2.2.<.,.+.p % # # # # # # # # # # # # # # # # # # # ",
"# # # # # # # # # # # # # # # # # # g O.^ +.-.2.2.2.2.2.2.2.2.2.2.2.2.2.2.2.2.2.2.2.2.2.=.[ ; # # # # # # # # # # # # # # # # # # ",
"# # # # # # # # # # # # # # # # # k ^ %.A N A $.2.2.2.2.2.2.2.2.2.2.2.2.2.2.2.2.2.2.2.2.2.) | = # # # # # # # # # # # # # # # # # ",
"# # # # # # # # # # # # # # # # j ~ %.A N Z N A :.2.2.2.2.2.2.2.2.2.2.2.2.2.2.2.2.2.2.2.2.2.,.} = # # # # # # # # # # # # # # # # ",
"# # # # # # # # # # # # # # # 1 $.<.H N A A N N W 2.2.2.2.2.2.2.2.2.2.2.2.2.2.2.2.2.2.2.2.2.2.;.] % # # # # # # # # # # # # # # # ",
"# # # # # # # # # # # # # # : ..<.$.N Z Z Z Z N +.2.2.2.2.2.2.2.2.2.2.2.2.2.2.2.2.2.2.2.2.2.2.2.) _ # # # # # # # # # # # # # # # ",
"# # # # # # # # # # # # # # ` ;.2.H N A Z N N D <.2.2.2.2.2.2.2.2.2.2.2.2.2.2.2.2.2.2.2.<.2.2.2.<.$.s # % # # # # # # # # # # # # ",
"# # # # # # # # # # # # # s $.2.I N N A N N H -.2.2.2.2.2.2.2.2.2.2.2.2.2.2.2.2.2.2.2.2.2.2.2.2.2.,.] % # # # # # # # # # # # # # ",
"# # # # # # # # # # # # # [ ,.E z N N N F W 2.2.2.2.2.2.2.2.2.2.2.2.2.2.2.2.2.2.2.2.2.2.2.2.<.2.2.2.=.h # # # # # # # # # # # # # ",
"# # # # # # # # # # # # s ^ 2.$.H H U %.<.2.2.2.2.2.2.2.2.2.2.2.2.2.2.2.2.2.2.2.2.2.2.2.2.2.2.2.2.2.,.} # # # # # # # # # # # # # ",
"# # # # # # # # # % # # ] ) 2.2.2.2.2.2.2.2.2.2.2.<.2.2.2.2.2.2.2.2.2.2.2.2.2.2.2.2.2.2.2.2.2.2.2.2.2.^ h # % # # # # # # # # # # ",
"# # # # # # # # # # # r ! 1.2.2.2.2.2.2.2.2.2.2.2.2.2.2.2.2.2.2.2.2.2.2.2.2.2.2.2.2.2.2.2.2.2.2.2.2.2.=.P , # # # # # # # # # # # ",
"# # # # # # # # # # 0 G %.2.2.2.2.2.2.2.2.2.2.2.2.2.<.2.2.<.#.@.%.! %.<.2.2.2.2.2.2.2.2.2.2.2.2.2.2.2.-.E m > # # # # # # # # # # ",
"# # # # # # # # # e B L -.2.2.2.2.2.2.2.2.2.2.2.<.2.2.2.&.$.q.y.u.e.5.! 2.2.2.2.2.2.2.2.2.2.<.2.2.2.2.2.$.D n 2 # % # # # # # # # ",
"# # # # # # # # q V N U :.2.2.2.2.2.2.2.2.2.2.2.2.2.2.-.3.i.s.s.s.s.s.w.%.2.2.2.2.2.2.2.E S A L :.2.2.2.%.F B M * # # # # # # # # ",
"# # # # # # # 8 V N A E 2.2.2.<.2.2.2.2.2.2.2.2.2.2.2.%.t.s.7.O X @ p.s.8.%.2.2.2.2.2.$.N N Z z I 2.2.2.-.H z B v & # # # # # # # ",
"# # # # # # 7 V A N A W <.2.2.2.2.2.2.2.2.2.2.2.2.2.*.4.s.7.        X s.u.@.2.2.2.2.2.R z D z m D <.2.2.-.L N m B b $ # # # # # # ",
"# # # # # < A N N N A W 2.2.2.2.2.2.2.2.2.2.2.2.2.2.#.0.s.o           6.s.3.:.2.2.<.2.+.z N D z H 2.2.2.<.L N D N B x $ # # # # # ",
"# # # # > N N A A N Z +.2.2.2.2.2.2.2.2.2.2.2.2.2.2.#.0.s.o           6.s.$.>.2.2.2.2.2.H N z D %.2.2.2.-.L N N N N V t & # # # # ",
"# # # # $ y B N A N D E <.2.2.2.2.2.2.2.2.2.2.2.2.2.=.4.s.7.        X s.i.$.2.2.2.2.2.2.2.$.W <.2.2.2.2.-.J A A A N V m 2 # % # # ",
"# # # # # # y B N Z D R 2.2.2.2.2.2.2.2.2.2.2.2.2.2.2.$.t.s.7.o . + p.s.8.#.2.2.2.2.2.2.2.2.2.2.2.2.2.2.&.H N N N A n , # # # # # ",
"# # # # # # # w B Z Z Y 1.2.2.2.2.2.2.2.2.2.2.2.2.2.2.:.3.u.s.s.s.s.s.w.$.2.2.2.2.2.2.2.2.2.2.2.2.2.2.2.%.H N N B n > # # # # # # ",
"# # # # # # # # e B N L -.2.2.2.2.2.2.2.2.2.2.2.2.2.2.2.-.$.q.y.i.e.5.! 2.2.2.2.2.2.2.2.2.2.2.2.2.<.2.2.$.D n B M * # % # # # # # ",
"# # # # # # # # # e V F $.2.2.2.2.2.2.2.2.2.2.2.2.2.2.2.2.>.#.%.$.@.%.2.2.2.2.2.2.2.2.2.2.2.2.2.2.2.2.<.E D B v * # # # # # # # # ",
"# # # # # # # # # # 9 C W <.2.2.2.2.2.2.2.2.2.2.2.2.2.2.2.2.2.2.2.2.2.2.2.2.2.2.2.2.2.2.2.2.2.2.2.2.2.:.L B c * # # # # # # # # # ",
"# # # # # # # # # # # q U -.2.2.2.2.2.2.2.<.$.%.2.2.<.2.2.2.<.2.2.2.2.2.2.2.2.2.<.2.2.2.2.2.2.2.2.2.2.$.G x $ # # # # # # # # # # ",
"# # # # # # # # # % # # u %.<.2.2.2.2.2.W D D m H -.2.2.2.2.2.2.2.2.2.2.2.2.2.2.2.2.2.2.2.2.2.2.2.2.:.Q t $ # # # # # # # # # # # ",
"# # # # # # # # # # # # # } ,.2.2.2.2.&.D z A N N J 2.2.2.2.2.2.2.2.2.2.2.2.2.2.2.2.2.2.2.2.1.&.2.2.%.i $ # % # # # # # # # # # # ",
"# # # # # # # # # # # # # 1 $.2.2.2.2.E z N N D N D :.2.2.2.2.2.2.2.2.2.2.2.2.2.2.2.<.$.U F D Z F ;.} # # # # # # # # # # # # # # ",
"# # # # # # # # # # # # # # ` ,.2.2.2.W z D D z N A :.2.2.2.2.2.2.2.2.2.2.2.2.2.2.W D N z N Z z H $.s # # # # # # # # # # # # # # ",
"# # # # # # # # # # # # # # = X.,.2.2.&.A n z N N J 2.2.2.2.2.2.2.2.2.2.2.2.2.2.L N N A Z N N L ) _ # # # # # # # # # # # # # # # ",
"# # # # # # # # # # # # # # # 1 $.:.2.2.W D N N H -.2.2.2.2.2.2.2.2.2.2.2.2.2.%.N A A N A N H ,.] # # # # # # # # # # # # # # # # ",
"# # # # # # # # # # # # # # # # h ~ <.2.2.-.$.$.1.2.2.2.2.2.2.2.2.2.2.2.2.2.2.$.N A N N Z Z ~ o.= # # # # # # # # # # # # # # # # ",
"# # # # # # # # # # # # # # # # # j %.,.2.2.2.2.2.2.2.2.2.2.2.2.2.2.2.2.2.2.2.&.A N N N Z T o.= # # # # # # # # # # # # # # # # # ",
"# # # # # # # # # # # # # # # # # # g O.,.2.2.2.2.2.2.2.2.2.2.2.2.2.2.2.2.<.2.2.R N m V K [ & # % # # # # # # # # # # # # # # # # ",
"# # # # # # # # # # # # # # # # # # # 4 [ =.<.2.2.2.2.2.<.2.2.2.2.2.2.2.2.2.2.2.2.+.K E p # # # # # # # # # # # # # # # # # # # # ",
"# # # # # # # # # # # # # # # # # # % # # k O.( <.2.2.2.2.2.2.2.2.2.2.2.2.2.2.2.,.( ] 6 # # # # # # # # # # # # # # # # # # # # # ",
"# # # # # # # # # # # # # # # # # # # # # # & p  .$.,.,.<.2.2.2.2.2.2.2.<.,.;.+.[ g # # # # # # # # # # # # # # # # # # # # # # # ",
"# # # # # # # # # # # # # # # # # # # # # # # # $ s a ] O.%.%.=.( / %.$.o.' l 5 # # # # # # # # # # # # # # # # # # # # # # # # # ",
"# # # # # # # # # # # # # # # # # # # # # # # # # # # # ; 6 g h j g 1 3 $ # # # # # # # # # # # # # # # # # # # # # # # # # # # # ",
"# # # # # # # # # # # # # # # # # # # # # # # # # # # # # # # # # # # # # % # # # # # # # # # # # # # # # # # # # # # # # # # # # ",
"# # # # # # # # # # # # # # # # # # # # # # # # # # # # # % # # # # # # # # # # # # # # # # # # # # # # # # # # # # # # # # # # # ",
"# # # # # # # # # # # # # # # # # # # # # # # # # # # # # # # # # # # # # # # # # # # # # # # # # # # # # # # # # # # # # # # # # ",
"# # # # # # # # # # # # # # # # # # # # # # # # # # # # # # # # # # # # # # # # # # # # # # # # # # # # # # # # # # # # # # # # # ",
"# # # # # # # # # # # # # # # # # # # # # # # # # # # # # # # # # # # # # # # # # # # # # # # # # # # # # # # # # # # # # # # # # ",
"# # # # # # # # # # # # # # # # # # # # # # # # # # # # # # # # # # # # # # # # # # # # # # # # # # # # # # # # # # # # # # # # # ",
"# # # # # # # # # # # # # # # # # # # # # # # # # # # # # # # # # # # # # # # # # # # # # # # # # # # # # # # # # # # # # # # # # ",
"# # # # # # # # # # # # # # # # # # # # # # # # # # # # # # # # # # # # # # # # # # # # # # # # # # # # # # # # # # # # # # # # # ",
"# # # # # # # # # # # # # # # # # # # # # # # # # # # # # # # # # # # # # # # # # # # # # # # # # # # # # # # # # # # # # # # # # "
};
