/* XPM */
static char *be2267e8c401432499ccb256837c1b99gN2UQV123XrdrwZD[] = {
/* columns rows colors chars-per-pixel */
"65 65 230 2 ",
"   c #000000",
".  c #0C0603",
"X  c #0F0803",
"o  c #140504",
"O  c #130B05",
"+  c #180E08",
"@  c #191817",
"#  c #270C07",
"$  c #320606",
"%  c #320F08",
"&  c #2B170C",
"*  c #341B0E",
"=  c #391B0E",
"-  c #2F1D1A",
";  c #381E11",
":  c #372613",
">  c #3C2212",
",  c #2C2927",
"<  c #3C2F27",
"1  c #23332F",
"2  c #343735",
"3  c #3B3C3B",
"4  c #4B0E08",
"5  c #540504",
"6  c #6B0302",
"7  c #770504",
"8  c #7B0303",
"9  c #6D160E",
"0  c #442414",
"q  c #4B2516",
"w  c #442915",
"e  c #4B2B15",
"r  c #4A2818",
"t  c #562615",
"y  c #512D19",
"u  c #4A301F",
"i  c #543217",
"p  c #543219",
"a  c #5B351B",
"s  c #5E391B",
"d  c #682E19",
"f  c #633C1C",
"g  c #693C1C",
"h  c #53352C",
"j  c #593928",
"k  c #453E34",
"l  c #483D38",
"z  c #673722",
"x  c #6A3C23",
"c  c #733B25",
"v  c #793C25",
"b  c #7E312F",
"n  c #633E3B",
"m  c #3F413E",
"M  c #67401E",
"N  c #6B411E",
"B  c #74441D",
"V  c #78461F",
"C  c #7A491F",
"Z  c #464236",
"A  c #494236",
"S  c #4C4539",
"D  c #59443A",
"F  c #6C4222",
"G  c #7D4A20",
"H  c #784528",
"J  c #694B38",
"K  c #75453B",
"L  c #3E4C49",
"P  c #424542",
"I  c #474A47",
"U  c #4B4C4A",
"Y  c #594B46",
"T  c #45514D",
"R  c #4D514D",
"E  c #59534B",
"W  c #4E5451",
"Q  c #485955",
"!  c #525551",
"~  c #5A5551",
"^  c #555A55",
"/  c #595B55",
"(  c #545C58",
")  c #5A5E59",
"_  c #694843",
"`  c #784945",
"'  c #67544B",
"]  c #77524D",
"[  c #715955",
"{  c #54645D",
"}  c #5D635C",
"|  c #62655E",
" . c #70625B",
".. c #5C6962",
"X. c #616661",
"o. c #656A63",
"O. c #6A6C64",
"+. c #6A6F68",
"@. c #746E64",
"#. c #6D7067",
"$. c #63736A",
"%. c #6D726A",
"&. c #6F796F",
"*. c #77756B",
"=. c #72756C",
"-. c #75796E",
";. c #797A6F",
":. c #6F7770",
">. c #6B7D72",
",. c #757B72",
"<. c #7A7D73",
"1. c #7A7F78",
"2. c #870604",
"3. c #950101",
"4. c #9B0303",
"5. c #9F1B1A",
"6. c #A70504",
"7. c #B40202",
"8. c #BE0404",
"9. c #BD100F",
"0. c #A91616",
"q. c #A91918",
"w. c #B91413",
"e. c #872B29",
"r. c #972624",
"t. c #853432",
"y. c #8B3A36",
"u. c #963834",
"i. c #A32523",
"p. c #B42321",
"a. c #C30404",
"s. c #CC0505",
"d. c #C40B0B",
"f. c #CC0D0C",
"g. c #D30505",
"h. c #DE0505",
"j. c #D30B0B",
"k. c #DC0A0A",
"l. c #C41413",
"z. c #D71615",
"x. c #E40606",
"c. c #EC0303",
"v. c #E30A0A",
"b. c #EF0B0A",
"n. c #F40202",
"m. c #FF0000",
"M. c #F4100F",
"N. c #CC2220",
"B. c #84452B",
"V. c #87492D",
"C. c #8B4B2C",
"Z. c #924D2F",
"A. c #8E552D",
"S. c #945A2F",
"D. c #8C4731",
"F. c #934D31",
"G. c #99483A",
"H. c #945331",
"J. c #9B5333",
"K. c #955D31",
"L. c #9C5A33",
"P. c #A35936",
"I. c #AC5E39",
"U. c #986434",
"Y. c #9C6435",
"T. c #9E6936",
"R. c #A56336",
"E. c #A46C37",
"W. c #AC653B",
"Q. c #A36C3A",
"!. c #A86938",
"~. c #AC6A3A",
"^. c #B3663B",
"/. c #B36D3D",
"(. c #BA6C3E",
"). c #A9703A",
"_. c #B4723D",
"`. c #BA743E",
"'. c #BD7C3E",
"]. c #C0723F",
"[. c #864843",
"{. c #934643",
"}. c #895B56",
"|. c #8C5955",
" X c #A14944",
".X c #B86441",
"XX c #B66C41",
"oX c #BA6D41",
"OX c #B77240",
"+X c #BA7541",
"@X c #BD7A42",
"#X c #857870",
"$X c #C26E45",
"%X c #C47443",
"&X c #C97647",
"*X c #C37A43",
"=X c #CA7D46",
"-X c #C57B48",
";X c #CD7D49",
":X c #D07E4A",
">X c #6B837A",
",X c #738075",
"<X c #7D8176",
"1X c #74857C",
"2X c #7D837A",
"3X c #7C897F",
"4X c #BE8040",
"5X c #818176",
"6X c #82857B",
"7X c #84897E",
"8X c #89887E",
"9X c #C48543",
"0X c #CB8246",
"qX c #CA8A45",
"wX c #CE8149",
"eX c #D3844B",
"rX c #D6864C",
"tX c #D58A4C",
"yX c #D98B4E",
"uX c #DA924D",
"iX c #DC8C50",
"pX c #DE9450",
"aX c #E19852",
"sX c #798C82",
"dX c #789287",
"fX c #858C82",
"gX c #8A8E83",
"hX c #839186",
"jX c #8B9389",
"kX c #94988F",
/* pixels */
"m.m.m.m.m.m.m.m.m.m.m.m.m.m.m.m.m.m.m.m.m.m.m.m.m.m.m.m.m.m.m.m.m.m.m.m.m.m.m.m.m.m.m.m.m.m.m.m.m.m.m.m.m.m.m.m.m.m.m.m.m.m.m.m.m.",
"m.m.m.m.m.m.m.m.m.m.m.m.m.m.m.m.m.m.m.m.m.m.m.m.m.m.m.m.m.m.m.m.m.m.m.m.m.m.m.m.m.m.m.m.m.m.m.m.m.m.m.m.m.m.m.m.m.m.m.m.m.m.m.m.m.",
"m.m.m.m.m.m.m.m.m.m.m.m.m.m.m.m.m.m.m.m.m.m.m.m.m.m.m.m.m.m.m.m.m.m.m.m.m.m.m.m.m.m.m.m.m.m.m.m.m.m.m.m.m.m.m.m.m.m.m.m.m.m.m.m.m.",
"m.m.m.m.m.m.m.m.m.m.m.m.m.m.m.m.m.m.m.m.m.m.m.m.m.m.m.m.m.m.m.m.m.m.m.m.m.m.m.m.m.m.m.m.m.m.m.m.m.m.m.m.m.m.m.m.m.m.m.m.m.m.m.m.m.",
"m.m.m.m.m.m.m.m.m.m.m.m.m.m.m.m.m.m.m.m.m.m.m.m.m.m.m.m.m.m.m.m.m.m.m.m.m.m.m.m.m.m.m.m.m.m.m.m.m.m.m.m.m.m.m.m.m.m.m.m.m.m.m.m.m.",
"m.m.m.m.m.m.m.m.m.m.m.m.m.m.m.m.m.m.m.m.m.m.m.m.m.m.m.m.m.n.m.m.n.m.m.m.m.m.m.m.m.m.m.m.m.m.m.m.m.m.m.m.m.m.m.m.m.m.m.m.m.m.m.m.m.",
"m.m.m.m.m.m.m.m.m.m.m.m.m.m.m.m.m.m.m.m.m.m.m.m.m.m.m.m.p.}.}.}.|.|.|.}.{.h.m.m.m.m.m.m.m.m.m.m.m.m.m.m.m.m.m.m.m.m.m.m.m.m.m.m.m.",
"m.m.m.m.m.m.m.m.m.m.m.m.m.m.m.m.m.m.m.m.m.m.m.m.m.m.m.w.:.jXhXhXhXhXfXsX>X[.n.m.m.m.m.m.m.m.m.m.m.m.m.m.m.m.m.m.m.m.m.m.m.m.m.m.m.",
"m.m.m.m.m.m.m.m.m.m.m.m.m.m.m.m.m.m.m.m.m.m.m.m.m.m.m.i.>X#X<.<X<.<.+.O.$.~ n.m.m.m.m.m.m.m.m.m.m.m.m.m.m.m.m.m.m.m.m.m.m.m.m.m.m.",
"m.m.m.m.m.m.m.m.m.m.m.m.m.m.m.m.m.m.m.m.m.m.m.m.m.m.m.q.$.<X;.<X<.2XO.O.$.r.m.m.m.m.m.m.m.m.m.m.m.m.m.m.m.m.m.m.m.m.m.m.m.m.m.m.m.",
"m.m.m.m.m.m.m.m.m.m.m.m.m.m.m.m.m.m.m.m.m.m.m.m.m.m.m.n.] ,X-.;.<.<.+.O.{ w.m.m.m.m.m.m.m.m.m.m.m.m.m.m.m.m.m.m.m.m.m.m.m.m.m.m.m.",
"m.m.m.m.m.m.m.m.m.m.m.m.m.m.m.m.m.m.m.m.m.m.m.m.m.n.j.l._ &.,X;.-.<.=.*.X.D l.c.m.m.m.m.m.m.m.m.m.m.m.m.m.m.m.m.m.m.m.m.m.m.m.m.m.",
"m.m.m.m.m.m.m.m.m.m.m.m.m.m.m.m.n.m.x.y.l.m.m.c.f.G.;.o.R #.;.#.=.<.,.<./ $.sX|.y.d.m.m.z.u.c.m.m.m.m.m.m.m.m.m.m.m.m.m.m.m.m.m.m.",
"m.m.m.m.m.m.m.m.m.m.m.m.m.m.m.m.m.c.] >X .s.x.] ,.1X,.:.T } ;.#.-.:.<.,./ 1.1.>.sX$.i.z.#XdX[.n.m.m.m.m.m.m.m.m.m.m.m.m.m.m.m.m.m.",
"m.m.m.m.m.m.m.m.m.m.m.m.m.m.m.m.c.}.1X<.&.' ] sX<X:.&.%.W | 6X<X#X<.<.-.} 1.:.O.#.2X) @.hX8X3X[.c.m.m.m.m.m.m.m.m.m.m.m.m.m.m.m.m.",
"m.m.m.m.m.m.m.m.m.m.m.m.m.m.m.k.}.1X;.,.=.,...%.2X<.<.,.} } ;.,X1X1.,.+.o.2X-.=.=.X.( gX7X6X5X>.K c.m.m.m.m.m.m.m.m.m.m.m.m.m.m.m.",
"m.m.m.m.m.m.m.m.m.m.m.m.m.m.m.r.$.,.=.,.-.<.%.^ ,.,.%.' S S ' E ' Y E S S ~ %.,.-./ <.7X6X6X6XfXo.v.m.m.m.m.m.m.m.m.m.m.m.m.m.m.m.",
"m.m.m.m.m.m.m.m.m.m.m.m.m.m.m.m.i.O.<.-.=.=.1.o.^ ' J C.A.H C.c a f a w w * < Y / O.fX5X<X<.6X@.i.m.m.m.m.m.m.m.m.m.m.m.m.m.m.m.m.",
"m.m.m.m.m.m.m.m.m.m.m.m.m.m.m.m.f.U o.<.=.,.<.} j C.P.+X_.R.W.C.N x j i a > * & - #.7X<.6X6XX.Y k.m.m.m.m.m.m.m.m.m.m.m.m.m.m.m.m.",
"m.m.m.m.m.m.m.m.m.m.m.m.m.m.m.c.` 1X/ #.,.=.} u L.XXXX+X4X_.+XY.S.H F a a e > : o @ ^ %.<.} o.>.b c.m.m.m.m.m.m.m.m.m.m.m.m.m.m.m.",
"m.m.m.m.m.m.m.m.m.m.m.m.m.m.m.r.1X6X%.R o.R j H XXOX+X;XqXOX+X~.R.A.x a s y w > +   @ U ! o.6X5X$.r.m.m.m.m.m.m.m.m.m.m.m.m.m.m.m.",
"m.m.m.m.m.m.m.m.m.m.m.m.m.m.k. .<X=.<XX.m j K.K.OX-X-XtXuXOX+XQ.~.!.G a s p e w +     O ! 7X5XfX<X' h.m.m.m.m.m.m.m.m.m.m.m.m.m.m.",
"m.m.m.m.m.m.m.m.m.m.m.m.m.m.e.$.;.<.2XO.j H.`.Y.-XeXwXtXtXOXOXOX/._.U.j s a y w +       - @.6X<.5Xo.r.m.m.m.m.m.m.m.m.m.m.m.m.m.m.",
"m.m.m.m.m.m.m.m.m.m.m.m.m.n.' ( | =.2XD C.(.*X~.eXtXuXuXuXOX@XOX_._.E.f a a y e +       . l <X-.o.( J m.m.m.m.m.m.m.m.m.m.m.m.m.m.",
"m.m.m.m.m.m.m.m.m.m.m.m.m.l.<.-.O.#.| x P.+XeX!.eXyXyXyXqX+X-XOX_.OXT.M j i i e O         + / X.o.%.| s.m.m.m.m.m.m.m.m.m.m.m.m.m.",
"m.m.m.m.m.m.m.m.m.m.m.m.m. X>.*.<X=.D H.W.-XyXE.wXiXiXyX9XOX;X+XOXOXT.M a a y w O           < =.;.*.$.u.m.n.m.m.m.m.m.m.m.m.m.m.m.",
"m.m.m.m.m.m.m.m.m.m.m.m.c.[.,.%.#.+.J R.~.;XuX_.wXyXyXyX9XOXwX+XOX@XT.M f a i e +           , -.=.=.,Xy.n.m.m.m.m.m.m.m.m.m.m.m.m.",
"m.m.m.m.m.m.m.m.m.m.m.m.h._ ,.@.=.} H ^._.0XuX4XeXtXeXtXqX+XeX@X@XOXXXM s a p e +           @ o.=.#.:.K x.m.m.m.m.m.m.m.m.m.m.m.m.",
"m.m.m.m.m.m.m.m.m.m.c.b.N.} o.| | Z N XXXXeXaX@XeXyXwXyXqX@XyX@X@XOX).N f s i e +             3 | } } ^ N.M.b.m.m.m.m.m.m.m.m.m.m.",
"m.m.m.m.m.m.m.m.m.m.t...#XjXgXjXhXS B XX+XrXaX@XeXrXwXtXqX'.yX-X@X'.E.N f s i w O             3 7X7X<XjX8X;.~ j.m.m.m.m.m.m.m.m.m.",
"m.m.m.m.m.m.m.m.m.m.t.>.:.=.X.#.&.S C XXeXyXaX@XeXtXwXtXqX'.yX-X@XOXE.N f s i 0 O             3 <.<.5X6X=.-.W j.m.m.m.m.m.m.m.m.m.",
"m.m.m.m.m.m.m.m.m.m.D.dX,.1.1.=.%.S C $XrXrXpX@XeXeXwXyX0X'.rX-X@X@XE.N M f i w O             P 2X-.<.2X<.<.R f.m.m.m.m.m.m.m.m.m.",
"m.m.m.m.m.m.m.m.m.m.t.sX<.<.7X<X=.S C =XyXeXuX'.eXeX=XyXqX@XrX*X@XOXT.f x f p 0 O             I 2X=.<.<.<.<.R j.m.m.m.m.m.m.m.m.m.",
"m.m.m.m.m.m.m.m.m.m.t.>.*.,.-.<.=.S B.].tXeXuX'.eXwX=XeX9XXXrX*X+XOXT.F F f e 0 +             Z fX-.<.<.-.%.R j.m.m.m.m.m.m.m.m.m.",
"m.m.m.m.m.m.m.m.m.m.t.$.o.o.o.%.=.A B.9XtXwXuX'.;XwX0XeX9XXXrX+XOXXXT.F x J Y u O             L 7X%.O.%.O.X.R j.m.m.m.m.m.m.m.m.m.",
"m.m.m.m.m.m.m.m.m.m.b Q ! R ! ! ! Z C wXrXeXyX'.wX=X-XeX9XXXrX`.OXOXT.M j ! U w +             2 ^ ! ! ! T T L j.m.m.m.m.m.m.m.m.m.",
"m.m.m.m.m.m.m.m.m.m.j.l.5.! ,.<.o.Z C qXeXeXtX_.=X=X=XtX9XXX:X`.OX/.U.g : , ! < O             2 $.<.=.U q.l.w.n.m.m.m.m.m.m.m.m.m.",
"m.m.m.m.m.m.m.m.m.m.m.m.j.O.kXfX<XS C ].wX:XtX).wXwX=XeXqX(.:X@X_.OXU.a l 3 U ! O             P jX<.-.^ v.m.m.m.m.m.m.m.m.m.m.m.m.",
"m.m.m.m.m.m.m.m.m.m.m.m.f.} 7X5X;.S C 0XwXwXyX_.=XwXwXeXqX`.:X@XOXOXT.p ~ 1 @ l +             I fX%.,.~ j.m.m.m.m.m.m.m.m.m.m.m.m.",
"m.m.m.m.m.m.m.m.m.m.m.m.f.^ <.5X;.S C 0XwX=XuX'.=XwX=XeX'.(.:X*X`.OXQ.q m , , 2 O             l 5X=.=./ g.m.m.m.m.m.m.m.m.m.m.m.m.",
"m.m.m.m.m.m.m.m.m.m.n.m.f.^ -.<.*.S C =XwXwXyX_.:X=X=XrX].].eX`.OX_.Q.w 3 I P - X             L <.| o.! j.m.m.m.m.m.m.m.m.m.m.m.m.",
"m.m.m.m.m.m.m.m.m.m.m.m.f.} -.@.#.Z C 0X=X=XtX).=X=XwXyXqX*XeX+XOX/.T.e , 3 , * O             3 -.o.| ! k.m.m.m.m.m.m.m.m.m.m.m.m.",
"m.m.m.m.m.m.m.m.m.m.n.m.d.U } ! T k C =X=X=XtX).:XwXwXrX9X).rX`.`._.U.e ; & * r O             2 X./ ) U s.m.n.m.m.m.m.m.m.m.m.m.m.",
"m.m.m.m.m.m.m.m.m.m.r.E [ } ..} ^ k C wX0X0XuX).rXwXwXyX_.~.eX`.(.).K.e r 0 0 > X             2 ) ....( ' ] _ k.m.m.m.m.m.m.m.m.m.",
"m.m.m.m.m.m.m.m.m.m.t.sX7XfXjX8X6XS C 0X=X=XtX_.:X:XwXrX(.~.]./.~.~.K.w w 0 0 = X             P gX<.1.<.2X2XQ f.m.m.m.m.m.m.m.m.m.",
"m.m.m.m.m.m.m.m.m.m.t.1X;.;.;.;.#.A C 0X=X=XqXR.&X:X=XrX`./.=X~.W.R.A.e q 0 0 ; X             P ,.) %.#X6X;.! j.m.m.m.m.m.m.m.m.m.",
"m.m.m.m.m.m.m.m.m.m.y.1X;.6X<.*.$.S C =X=X&X0XR.:X=X=X=X_.R.].I.P.J.V.e q q 0 0 X             I 7XO.-.6X6X;.! f.m.m.m.m.m.m.m.m.m.",
"m.m.m.m.m.m.m.m.m.m.y.dX;.<X<.=.O.S B =X%X(.9XK.&X].&X=X/.Y.(.L.L.A.H e q 0 0 ; O             P fX<.<.<.-.,.! j.m.m.m.m.m.m.m.m.m.",
"m.m.m.m.m.m.m.m.m.m.t.1X<.<X<X=.O.A G =X&X^.].K.+X%X&X%X~.L.^.H.F.C.H r q 0 0 = .             L fX<.<.5X<.=.! j.m.m.m.m.m.m.m.m.m.",
"m.m.m.m.m.m.m.m.m.m.t.>.;.-.#.| | k G &X*XI.`.S..XoX].].W.H.I.C.C.B.H r 0 0 ; * .             3 -.<.=.-.:...I f.m.m.m.m.m.m.m.m.m.",
"m.m.m.m.m.m.m.m.m.m.e.W ~ T R ! W k V $X].P./.S.^.^.^.^.R.A.P.V.H v z 0 0 0 ; * + . . o o o o , U W ! W U l k j.m.m.m.m.m.m.m.m.m.",
"m.m.m.m.m.m.m.m.m.m.x.x.w.^ <.<.-.A B $X^.P.^.A.I.I.I.I.P.C.F.v c c d = 0 = = & # $ $ $ $ $ $ l ,.1.<.! d.x.k.n.m.m.m.m.m.m.m.m.m.",
"m.m.m.m.m.m.m.m.m.m.m.m.f.) =.<.<XZ B oXP.J.R.A.P.G.J.P.G.B.V.c c z t - 0 ; * % 4 5 5 5 5 5 5 Y fX%.-./ h.m.m.m.m.m.m.m.m.m.m.m.m.",
"m.m.m.m.m.m.m.m.m.m.m.m.f.) ,.=.*.S B R.J.Z.H.B.G.F.D.F.F.B.y.x z z r 4 4 4 6 8 8 8 7 7 7 7 6 Y 2X=.,./ j.m.m.m.m.m.m.m.m.m.m.m.m.",
"m.m.m.m.m.m.m.m.m.m.m.m.f.| <X%.*.S g P.F.B.C.H Z.D.D.D.F.v c t 9 9 7 2.3.3.3.3.4.4.4.4.4.4.2._ ,X%.,.) g.m.m.m.m.m.m.m.m.m.m.m.m.",
"m.m.m.m.m.m.m.m.m.m.m.m.f.} <.#.#.D g F.D.v C.c D.v c d c 9 2.4.6.6.7.7.7.7.7.7.7.8.8.a.8.8.6.n ,.=.<X| j.m.m.m.m.m.m.m.m.m.m.m.m.",
"m.m.m.m.m.m.m.m.m.m.m.m.d.} -.o...k g Z.B.c x a d t 9 7 2.6.6.7.8.8.8.d.s.a.a.a.a.s.g.g.g.v.j.n &.<.8X| j.m.m.m.m.m.m.m.m.m.m.m.m.",
"m.m.m.m.m.m.m.m.m.m.m.m.f.L Q Q Q 1 : z y q 9 7 2.4.6.7.a.s.g.g.k.k.k.k.k.k.k.k.k.v.x.x.x.n.v.h Q Q ..Q j.m.m.m.m.m.m.m.m.m.m.m.m.",
"m.m.m.m.m.m.m.m.m.m.m.m.x.q.q.0.q.0.4.6.7.7.n.m.m.m.m.m.m.m.m.m.m.m.m.m.m.m.m.m.m.m.m.m.m.m.m.9.0.0.q.q.n.m.m.m.m.m.m.m.m.m.m.m.m.",
"m.m.m.m.m.m.m.m.m.m.m.m.m.m.m.m.m.m.m.m.m.m.m.m.m.m.m.m.m.m.m.m.m.m.m.m.m.m.m.m.m.m.m.m.m.m.m.m.m.m.m.m.m.m.m.m.m.m.m.m.m.m.m.m.m.",
"m.m.m.m.m.m.m.m.m.m.m.m.m.m.m.n.m.n.m.m.m.m.m.m.m.m.m.m.m.m.m.m.m.m.m.m.m.m.m.m.m.m.m.m.m.m.m.m.n.m.m.n.m.m.m.m.m.m.m.m.m.m.m.m.m.",
"m.m.m.m.m.m.m.m.m.m.m.m.m.m.m.m.m.m.m.m.m.m.m.m.m.m.m.m.m.m.m.m.m.m.m.m.m.m.m.m.m.m.m.m.m.m.m.m.m.m.m.m.m.m.m.m.m.m.m.m.m.m.m.m.m.",
"m.m.m.m.m.m.m.m.m.m.m.m.m.m.m.m.m.m.m.m.m.m.m.m.m.m.m.m.m.m.m.m.m.m.m.m.m.m.m.m.m.m.m.m.m.m.m.m.m.m.m.m.m.m.m.m.m.m.m.m.m.m.m.m.m.",
"m.m.m.m.m.m.m.m.m.m.m.m.m.m.m.m.m.m.m.m.m.m.m.m.m.m.m.m.m.m.m.m.m.m.m.m.m.m.m.m.m.m.m.m.m.m.m.m.m.m.m.m.m.m.m.m.m.m.m.m.m.m.m.m.m.",
"m.m.m.m.m.m.m.m.m.m.m.m.m.m.m.m.m.m.m.m.m.m.m.m.m.m.m.m.m.m.m.m.m.m.m.m.m.m.m.m.m.m.m.m.m.m.m.m.m.m.m.m.m.m.m.m.m.m.m.m.m.m.m.m.m."
};
