/* XPM */
static char *c64b4ae90d3e48baeadffc7a4570bce5CYQSwpCXgFgOHlkQ[] = {
/* columns rows colors chars-per-pixel */
"40 40 171 2 ",
"   c #280604",
".  c #2E0906",
"X  c #320907",
"o  c #330708",
"O  c #350A08",
"+  c #3B0C0B",
"@  c #34150D",
"#  c #3D120C",
"$  c #3B1719",
"%  c #272615",
"&  c #272E33",
"*  c #2F383D",
"=  c #440B0D",
"-  c #420C0D",
";  c #44120D",
":  c #4B120E",
">  c #470C10",
",  c #4C0D12",
"<  c #510E14",
"1  c #590F14",
"2  c #451411",
"3  c #4C1311",
"4  c #471813",
"5  c #4D1A12",
"6  c #541314",
"7  c #5B1515",
"8  c #531B14",
"9  c #5D1B15",
"0  c #5B1618",
"q  c #541C1B",
"w  c #5E1A19",
"e  c #601716",
"r  c #641A16",
"t  c #681C17",
"y  c #611719",
"u  c #621C1A",
"i  c #6A1D18",
"p  c #4E241A",
"a  c #44291F",
"s  c #542116",
"d  c #5B2217",
"f  c #562619",
"g  c #5C2619",
"h  c #523D1D",
"j  c #622817",
"k  c #65211B",
"l  c #6C231B",
"z  c #642B1C",
"x  c #6D2B1E",
"c  c #71261D",
"v  c #74291E",
"b  c #7A2B1F",
"n  c #541D22",
"m  c #40272F",
"M  c #5B2120",
"N  c #453723",
"B  c #483624",
"V  c #523723",
"C  c #462931",
"Z  c #533433",
"A  c #682621",
"S  c #6E2620",
"D  c #752C21",
"F  c #792E22",
"G  c #6B3423",
"H  c #6A3727",
"J  c #753422",
"K  c #7C3224",
"L  c #703C26",
"P  c #7E3C27",
"I  c #653032",
"U  c #773C32",
"Y  c #215D2F",
"T  c #33562B",
"R  c #1E6A36",
"E  c #1D753C",
"W  c #177B3E",
"Q  c #197A3E",
"!  c #3F6C2D",
"~  c #256736",
"^  c #2D6B38",
"/  c #386436",
"(  c #356C38",
")  c #21733B",
"_  c #2D7E3D",
"`  c #3F7B31",
"'  c #3C743C",
"]  c #5A442A",
"[  c #504532",
"{  c #465B32",
"}  c #674129",
"|  c #66492A",
" . c #774929",
".. c #7E4B2B",
"X. c #6D532A",
"o. c #44682A",
"O. c #4A6534",
"+. c #496937",
"@. c #546E31",
"#. c #5A6C32",
"$. c #497A34",
"%. c #547B35",
"&. c #5C7A38",
"*. c #776E35",
"=. c #627539",
"-. c #717136",
";. c #383F45",
":. c #464A48",
">. c #4F525B",
",. c #644243",
"<. c #5B5C60",
"1. c #747A7C",
"2. c #823425",
"3. c #843827",
"4. c #883927",
"5. c #813728",
"6. c #853B28",
"7. c #8B3D2A",
"8. c #85432B",
"9. c #8D422D",
"0. c #8A4B2E",
"q. c #92442E",
"w. c #9A4C2E",
"e. c #85493C",
"r. c #954730",
"t. c #964B30",
"y. c #9C4C32",
"u. c #855C33",
"i. c #9E5134",
"p. c #A14F34",
"a. c #A55436",
"s. c #A85637",
"d. c #A95738",
"f. c #AA5839",
"g. c #AA5939",
"h. c #9D6039",
"j. c #A0623A",
"k. c #826460",
"l. c #B27964",
"z. c #4B8338",
"x. c #55883A",
"c. c #1A8542",
"v. c #1B8D45",
"b. c #1C9047",
"n. c #1D9B4B",
"m. c #238441",
"M. c #229548",
"N. c #349245",
"B. c #1DA34E",
"V. c #2AAA4C",
"C. c #33A445",
"Z. c #3CB147",
"A. c #47B548",
"S. c #60A345",
"D. c #69AD4E",
"F. c #7DC051",
"G. c #889344",
"H. c #88A54A",
"J. c #8AB34E",
"K. c #B98573",
"L. c #C88E78",
"P. c #87C053",
"I. c #96C958",
"U. c #9FE963",
"Y. c #8B9797",
"T. c #B8A3A1",
"R. c #B7B4B2",
"E. c #C9C1C1",
"W. c #E9E1DF",
"Q. c #E1DFE0",
"!. c #EAE4E3",
/* pixels */
"P.u.F K K K 7.a.a.q.i 1 < < , u K K K 2.K v l c 7.y.9.5 + 6 : ; : ; : 5 j 8 ,.Y.",
"I.u.F K K 9.y.a.g.r.c r 7 < , u K K K F K F F F K K b ; ; t t r t t r b y.j k.Q.",
"D.=.} K K r.g.g.g.w.c t e < , u J 9 3 5 0 0 w w 8 ; ; 5 9 t t t t i r v a.w.K.Q.",
"m.M.+.J D 7.t.y.y.q.l t e < , y D 5 4 8 A S u 2 - - ; e l c c c c c K q.a.a.L.W.",
"b.n.( q 7 8 2 ; 9 c t t y 6 < 0 F v 5.y.y.y.6.# 6 u y y l K K K K K q.g.s.s.l.R.",
"M.B.( q 1 , : z u e t K 7.K l 0 w w k S S A w , , 6 6 < r F 2.K K K q.s.a.g.e.:.",
"n.B.' z z z c i.J , u 7.g.d.7.l 6 , < w 0 w y u y k D K D k r 9 8 y j g g v I * ",
"B.B.$.L x.@.c y.G + r 7.d.d.d.6.6 , u F F K K K K 4.a.g.7.6 < > + : 5 5 5 9 I 1.",
"v.n.N.&.=.| l i.3.6 t 7.d.d.d.9.i y l K 2.F K K K 6.a.g.7.0 7 u r r K i.a.l ,.E.",
"Q b.V.A.-... .8.J t t 7.d.d.d.r.v i i v v v v v c K p.g.7.0 e l v D 7.g.g.x $ <.",
"Q b.V.A.F.I.J.h : k t 4.d.d.d.y.K l t i t t u i t c q.w.2.7 e c K K 6.q.a.J # & ",
"Q c._ #.J.U.I.X.t t t 7.g.d.g.y.2.c t i i t t i t i c c u < e l F K c c r.3.M ;.",
"Q Q ~ f *.H.G...l 7 7 D 5.5.5.K l 0 7 7 3 : 7 7 7 7 1 7 1 , 1 6 0 0 0 6 4 7 w ;.",
"Q Q Y @ 2 k x l r 6 7 0 0 0 6 < < 6 6 6 ; 2 6 1 , > < 6 7 0 y 0 y 0 u w 8 8 q ;.",
"v.Y % . = 0 c D v c 7.q.r.r.S < u l D D b D D i : + 7 t i F K K F K K K K l n >.",
"n.T 3 s 3 3 l F 3.q.a.g.g.g.K , 3 l 2.K K F c i : O w i l K K K K K K K K D e.E.",
"M.O.K t.g O < S 7.a.d.a.d.d.F > + 9 F K K D i i 6 X 7 e r l c D v v b K 2.b t.!.",
"B.+.3.a.z o , S 7.a.d.d.d.g.K , , 7 l F J c t r : X = , > , 6 r e u k x x l U T.",
"v.O.2.q.g o < l 7.d.g.g.a.K y , + - ; : 3 ; - + O . X O o O O O O O O # # # # p ",
"c.{ F F 8 O , l 5.y.r.y.r.k 7 q - O O O O o . 2 5 8 5 8 8 8 8 8 8 8 s 9 z J } o.",
"N.O.7 7 , , , y l c c c c D D D l 9 6 6 6 , + g F J K K K 2.K 2.3.3.K 7.a.g.j.S.",
"Z.%.k u k i A F 2.t r e 1 y y u 4.q.9.9.r.K 6 0 b K K K J K F 3.y.9.3.y.a.g.h.S.",
"C.%.K K K K 2.w.p.F i y < , , 0 t.g.g.g.g.r.0 6 e i S F K K K 6.a.q.7.a.g.d.h.S.",
"c.O.K K K K F q.s.p.F e < , , 0 r.g.a.a.d.9.6 > , > 6 r D D c D 6.J v P P 8.0.x.",
"Q { K K K 3.q.i.d.a.2.r e 6 , 7 t.g.d.a.g.9.# o o o X ; < 6 6 < ; : : ; O : z x.",
"W / } K K 5.a.g.d.a.2.r t 7 7 e K t.a.d.g.9.#   O 3 6 6 9 7 e e 6 7 7 6 9 6 5 z.",
"Q Q ( H F P t.a.a.y.2.t t t t t i 3.d.a.a.P + o ; 8 7 9 8 9 6 6 6 9 i i t e ; z.",
"Q W E B y w s 8 d v c t i i i i t 3.d.g.J # , , = + O O O O O # + 8 c i t 9 # ` ",
"Q Q ) a 1 6 - 5 d 7 6 : : : : : : 8 z z 8 = , < : = : 6 6 8 l 4.8.q.q.l t u g %.",
"Q Q ) V t i r 3.y.8 + + # # # ; + O o O + > , , , < e t t t 3.s.g.g.y.i : 6 k %.",
"Q Q ) ] F v i 4.w.; ; l 9.t.t.q.c 7 , , = o , < , , 7 t r r K a.a.g.w.r - - 0 %.",
"E E E | 2.F l 4.i.8 6 b a.g.g.a.K r 7 6 + X 7 1 < < 6 1 6 6 v a.a.g.y.c r 9 6 $.",
"W Q E ] F D i F 9.S r v p.s.s.a.2.l i 7 > O : 3 = - = + + > S p.g.y.2.c t r + o.",
"W W E N 1 7 1 3 ; u t v p.s.a.a.7.F F c 3 X O O o X O O + 2 S y.p.3.t t t r ; o.",
"Q W Q N e u k 9 8 7 7 v y.d.s.s.7.K 2.S 6 O - > > > 6 w w l K 3.F i t t t t y @.",
"Q E R B l J K 2.K u 7 l q.y.q.9.D S l y = X = > = + : 3 7 u u u 7 7 7 1 3 ; t [ ",
"Q R % X 5 F K K K F u 6 F F i 7 6 6 6 6 2 # > = O . X + < 6 6 6 0 0 0 0 8 3 7 C ",
"E ~ p : 3 l K K K 2.A 6 i l e < y S S D S l 6 6 6 O ; r r c F F F D F F F D 0 m ",
"W ^ H 7 6 y l k k S y 1 r u 7 < l 6.K K K K S l t O : k t v 2.K F K 2.K F F D Z ",
"W ~ p , , , # @ @ 2 3 < e 7 , , u F K K K K D l 6 O : r r t c b F F D F K K K Z "
};
