/* XPM */
static char *_8547d46f3e3410e8ba053b2b1661bd8nFQXlyGcYOGWDlow[] = {
/* columns rows colors chars-per-pixel */
"65 65 57 1 ",
"  c #393737",
". c #393838",
"X c #3B3838",
"o c #3C3939",
"O c #3D3C3C",
"+ c #413F3F",
"@ c #424040",
"# c #434141",
"$ c #454343",
"% c #474646",
"& c #484747",
"* c #4A4848",
"= c #4E4D4D",
"- c #504F4F",
"; c #535252",
": c #545353",
"> c #555454",
", c #585656",
"< c #585858",
"1 c #5A5A5A",
"2 c #5C5A5A",
"3 c gray36",
"4 c #5D5D5D",
"5 c #605F5F",
"6 c #5F6060",
"7 c #626161",
"8 c #646363",
"9 c #656565",
"0 c #686767",
"q c DimGray",
"w c #6C6B6B",
"e c #6D6D6D",
"r c #6E6D6D",
"t c gray44",
"y c #717070",
"u c gray45",
"i c #747373",
"p c #767575",
"a c #777676",
"s c #777777",
"d c gray48",
"f c #7E7E7E",
"g c #807F7F",
"h c #818181",
"j c gray51",
"k c #838383",
"l c #848484",
"z c #868686",
"x c #888888",
"c c #898989",
"v c gray55",
"b c #8D8D8D",
"n c #909090",
"m c gray57",
"M c #929393",
"N c gray58",
"B c #979797",
/* pixels */
"22221122222222221111222222222222222222222222222222222222222222221",
"         XX  XX XX   XX  XX   X  X XX       X X  XX   X  X XX  XX",
"oXo XXXXX o X  XXXXXX o X  X Xo X X Xoo+OoX     XX X Xo X X   X X",
",877777777777777777777777777777777779:oo#477878775857777777788587",
"pNbmmbmmmmmbmbmmmmbmmbmmmbmmmbmmnmmbNyoO%zmnnmmbmbmmmbmmnmmbmbmmb",
"imbbbbbbbbbbbbbbbbbbbbbbbbbbbbbbbbbvmrXo#znbbbbbbbbbbbbbbbbbvvbbb",
"rzzzzzzzzkzzzzzzzzzzzzzzzzzzzzzzzkzkvqXO#fzzzzzzzzzzzzzzzlzzzzzzz",
":744444444544444444444444444444444437;XO#344447444444444445444447",
";444444444444444444444444444444444446;XOO144444444444444444444444",
">746644454644447644447644447464464447=XO#144446474464474454444444",
";644444744444744446444446444477447647;oo+174744444444664445744744",
">444474645744446744446747464444444444;OOo144444464474444544477446",
">744447444464474464474444644446646647;oO#144454744444644744446444",
":444644447446444444744644447644444447=oO+154444747464447446444474",
";644444444444444444444444444444344446=XO+144444444444444444444444",
":744447446447446744644744644464674446;oO+144744444747446447446444",
";634444444444433444444444444443344444;ooO133444443443444444444444",
"+########$##########################$#OOO#######%################",
"OoOOXOXOooOooOOXOXOXOXOOXO#XOXOOoOXOoO+oOOXOOOXOXOXOOXOXOOXXXOOOO",
" XXXX.XXXXo XXXXXOOOXXXX   XXXXXXXXXX   XXXXXXXXXXXXXXXXXXOOOXXXX",
"qqqqqqqqqqq0qq9qq*XX=qqqqq9qqqqqqqqqq9qqqqq9q9qqqqqqqqqqq7#XO3qqq",
"nmnmnnmmmbmmmmmmM>XX1MnnmmmmnmmmnmmnmnmmmmmmmnmmnnmnmmnvMkOOXpMnm",
"bbvvvvbbvvbvbbvvv>XX1nvbvvvvbbvvvvbbvvvvbvbbvvbvvvvvbvvvmhOOXtmbb",
"kkhkkkkkkkkkkkkkk-X ;kkkhkkkkkkkkkkkkkkkkkkkkkkkkkkkkkkkkp#OXqzkk",
"34474744464464474%XO&644446444463347444647444647446447447>OOo>744",
"34444444444444444%OX*4444444444444444444444444444444444441OOo>444",
"74446474447444444%XO&644444647444444644464744444744444444>OOX;744",
"44644444764447444%OX&6444744464747464447444447464474466471OOo>444",
"44447446446447444%XO&644647444444647444647464444674474444>OOO;747",
"46644444644444444%OX&4447444466444447444464464764464444471OOo>444",
"47446447447446444%XO&6444446474474644474444744444744464443#oX;744",
"44444444444444444%OX&4444444444444444444444444444444444441OOo;444",
"74444443744444634&XO&333744444634444444444644744444433737>#XX;734",
"12214131122241111&OX&331122241111411422411111121422413314>XXO>311",
"#+++#+#####O#+#O$OOXO######O#+#O##+++##+O####++#+#++O####$O#O##++",
"ooOOOXOXOXX+OOOOOOOOOOOOOXX+OOOOXO+XoOOXOOoOOO+X+OOoOOXOXOOOOOOXO",
"oXXXOO#XXXXXXXX.XXXXXX.XXXXXXXX.XXX XoOOoXXXXX     XXXXXX.XXXXXX ",
"rry4XOO9trrrrrrerrrrereerrrrrrrerrrry1oOOqrrrrrrrrrrrrrreerrrreer",
"mnBsXOXkMmnnmmmnmmnnnmnnnnnnmmmnnnmmByXo#vmmnnmmmmmmnmmmnnmmmmnnm",
"bvMuOOOkmbvvbbbvbbbbvvnvnvnvbbbvvvbbMrXO%zmbbvbbbbbbvvbbnvbbbbvvb",
"kkzqXO#pzfkkkhkkkhkkkkhhkkkkkhkkkkhhz9XO%dkkkkkkkkkkkkkkhhkhhkhhk",
"416;OXO>44344144334413334433314433336=XOX333441433343334334433334",
"446>oO+>44444444444444444444444444347;oo#134444434443444333444444",
"446;OOo174644444446464444447444444644>OOO444446444444446666344647",
"444>OOO144444446744444474444444464447;oO+174444447444474444466444",
"744>oOO,64744744446446447464774764444;oO+144647444646444647644464",
"444>OOO144446444444744466474444444447=XO+244444464444464444446476",
"447>ooO,74647474464647444444644446646;XOO244474644477444474744444",
"447;Oo#>74444444444444444444444444444;oO#143444444444444444444444",
"477;OXX174447444434464444474444447447;oO+163744447443344464447444",
"1>1;OOX;1111111111111111>1111111111>4=oOO>31111111311111131>13311",
"O#OOOX##O+oOOO+O#Oo#O+X#O#Oo+OO##O+O#oOOo#X#OOO#OO+OO#O##XO+OX#OO",
"O#OOO#OOOOOoOOO+OOOOOoOOOOOOO+OOXOOOOO+OOOOOOOOOX+OOO#OOOOOOXOO#O",
"X ooXXooooooooo XXoooOOXooXXXXooXXXXooXXoooooXooXXXXXXXXooXXXXXXX",
"yyyyyyuyyiyiyiyyyyyp7oO+rpyyyyyypyyyyyiyyiyyuyyytyyuyyyyyyyuyytp7",
"mmmmmmmmmmmmmmmmmmmNpoX#zmmmmmmmmmmMmmmmmmmmmmmmmmmmmmMmmMmmmmmMd",
"bvbvbvbvbbvbbvbbbbbmtoO#knbvvvbvbnvbbvbbvbbvbbvvbvbvbvbvmbvbbvbmp",
"kfkkkfkkfkfkkffkfkfzqoX#pkfkkfkkfkfkkffkfkkffkfkkfkkkfkkfkfkkfkkr",
"34443444444444444446;oOO1344344434444434444434443444344444444413;",
"44444446447444444446;oo#1644444434464744644444744444444444464437>",
"47444474444444444644>ooO1444446774444447446774444447464447644447>",
"44646444647647474447>oOO1344474444644644474444644644444744446446>",
"64444464444446474745>XOO1444444744474446444744474446474446744444>",
"44477444474744444446>oX#1446644446464744644446464744464744446447>",
"47444644744464474447;XOO1444474446447444644744464474446447444647>"
};
