/* XPM */
static char *c5daf8bf166d4ee2caafecf4d0870e06vUbyCIVBac3wptlS[] = {
/* columns rows colors chars-per-pixel */
"65 65 118 2 ",
"   c #1E0F1D",
".  c #1E111F",
"X  c #20101E",
"o  c #1F1220",
"O  c #241523",
"+  c #281725",
"@  c #251926",
"#  c #291926",
"$  c #271B28",
"%  c #2A1D2A",
"&  c #3C1F2B",
"*  c #1E2533",
"=  c #2E222F",
"-  c #32212E",
";  c #222533",
":  c #2A2532",
">  c #312431",
",  c #352A36",
"<  c #372B38",
"1  c #392E3A",
"2  c #3D323E",
"3  c #6E161F",
"4  c #73161E",
"5  c #7D141C",
"6  c #4E1C27",
"7  c #431E2A",
"8  c #481D28",
"9  c #521B26",
"0  c #5C1A24",
"q  c #6A1721",
"w  c #611923",
"e  c #691821",
"r  c #3F3440",
"t  c #433844",
"y  c #473D48",
"u  c #4B414C",
"i  c #504651",
"p  c #544A54",
"a  c #574D58",
"s  c #5C535D",
"d  c #635A63",
"f  c #6D656E",
"g  c #6F6770",
"h  c #756D75",
"j  c #777078",
"k  c #7C747C",
"l  c #9B0F15",
"z  c #85131A",
"x  c #88131A",
"c  c #951017",
"v  c #981016",
"b  c #901118",
"n  c #B70B0F",
"m  c #BD0A0E",
"M  c #A30E14",
"N  c #AB0D12",
"B  c #B40B10",
"V  c #CE070A",
"C  c #C3090D",
"Z  c #C9080B",
"A  c #DE0407",
"S  c #D20709",
"D  c #D90508",
"F  c #E30405",
"G  c #EA0304",
"H  c #F30102",
"J  c #FF0000",
"K  c #847D85",
"L  c #8D868D",
"P  c #8E888F",
"I  c #8F8990",
"U  c #928B92",
"Y  c #969097",
"T  c #979198",
"R  c #9A959B",
"E  c #A29CA2",
"W  c #A7A3A8",
"Q  c #A9A4AA",
"!  c #AEA9AE",
"~  c #AFABB0",
"^  c #B2AEB2",
"/  c #B5B1B5",
"(  c #BBB7BB",
")  c #BBB7BC",
"_  c #BDB9BE",
"`  c #BFBBBF",
"'  c #BFBCC0",
"]  c #C0BCC0",
"[  c #C2BFC2",
"{  c #C4C1C4",
"}  c #C9C6C9",
"|  c #CBC8CB",
" . c #CFCCCF",
".. c #D2D0D3",
"X. c #D3D1D4",
"o. c #D4D1D4",
"O. c #D4D2D4",
"+. c #D9D7DA",
"@. c #DAD8DB",
"#. c #DCDADC",
"$. c #DDDBDD",
"%. c #DEDCDF",
"&. c #DFDDDF",
"*. c #DFDEDF",
"=. c #E2E0E2",
"-. c #E4E2E4",
";. c #E9E7E9",
":. c #EBEAEB",
">. c #ECEBEC",
",. c gray94",
"<. c gray95",
"1. c #F3F2F3",
"2. c #F4F3F4",
"3. c gray97",
"4. c #FBFBFB",
"5. c #FCFBFC",
"6. c gray99",
"7. c white",
/* pixels */
"J J J J J J J J J J J J J J J J J J J J J J J J J J J J J J J J J J J J J J J J J J J J J J J J J J J J J J J J J J J J J J J J J ",
"J J J J J J J J J J J J J J J J J J J J J J J J J J J J J J J J J J J J J J J J J J J J J J J J J J J J J J J J J J J J J J J J J ",
"J J J J J J J J J J J J J J J J J J J J J J J J H J J J J J J J J J J J J J J J J J J J J J J J J J J J J J J J J J J J J J J J J ",
"J J J J J J J J J J J J J J J J J J J J J J J J J J J J J J J J J J J H J J J J J J J J J J J J J J J J J J J J J J J J J J J J J ",
"J J J J J J J J J J J J J J J J J J J J J J J J J J J F D S V D F H J J J J J J J J J J J J J J J J J J J J J J J J J J J J J J J ",
"J J J J J J J J J J J J J J J J J J J J J J J A N 4 6 - - = = = - 7 q l V J J J J J J J J J J J J J J J J J J J J J J J J J J J J ",
"J J J J J J J J J J J J J J J J J J J J J C 4 7 ; ; : : = = = = : : ; : % 0 N H J J J J J J J J J J J J J J J J J J J J J J J J J ",
"J J J J J J J J J J J J J J J J J J J A 3 ; ; : % + + + = < < = % O + % : : : 6 C J J H J J J J J J J J J J J J J J J J J J J J J ",
"J J J J J J J J J J J J J J J J J J N & ; - % O > d U ^ } ....} ) R h 2 O @ > : = z H J J J J J J J J J J J J J J J J J J J J J J ",
"J J J J J J J J J J J J J J J J J x ; : - @ < K %.7.7.7.7.7.7.7.7.7.7.>.E u @ % : ; 0 G J J J J J J J J J J J J J J J J J J J J J ",
"J J J J J J J J J J J J J J J H 4 ; - % % k %.7.7.7.4.4.7.4.4.7.4.4.7.7.7.<.R < @ > ; 9 G J J J J J J J J J J J J J J J J J J J J ",
"J J J J J J J J J J J J J J J z * > % 1 / 7.7.7.7.7.7.7.7.7.7.7.7.7.7.7.4.7.7...i O - ; 9 G J J J J J J J J J J J J J J J J J J J ",
"J J J J J J J J J J J J J J M ; > % 2  .7.5.6.6.7.5.7.7.7.7.7.7.7.7.7.4.7.4.4.7.<.d @ > ; 4 J J J J J J J J J J J J J J J J J J J ",
"J J J J J J J J J J J H J V % : % 2 o.7.4.7.7.7.7.7.7.7.7.7.7.7.7.7.7.7.7.7.7.4.7.4.s O - ; M J J J J J J J J J J J J J J J J J J ",
"J J J J J J J J J J J J J 3 : - % _ 7.4.7.7.7.7.7.7.7.7.7.7.7.7.7.7.7.7.7.7.4.7.4.7.;.y % : & A J J J J J J J J J J J J J J J J J ",
"J J J J J J J J J J J J B ; - O P 7.4.7.4.7.7.6.7.7.7.7.7.7.7.7.7.7.4.7.7.7.7.7.7.4.7.[ % - ; 5 J J J J J J J J J J J J J J J J J ",
"J J J J J J J J J J J J 9 ; % u <.7.7.7.7.7.7.7.7.7.5.7.7.7.7.4.7.7.7.7.7.7.7.7.7.7.7.7.h O : & D J J J J J J J J J J J J J J J J ",
"J J J J J J J J J J J C = - @ E 7.4.7.<.} 7.7.4.7.7.7.7.7.7.7.7.7.4.7.7.@.%.7.5.7.7.4.7.$.< % ; c J J J J J J J J J J J J J J J J ",
"J J J J J J J J J J J z ; % 2 :.7.4.7.} % h $.7.7.4.7.7.4.7.7.7.4.7.<.R = P 7.4.4.7.7.4.7.h @ : 8 J J J J J J J J J J J J J J J J ",
"J J J J J J J J J J J 0 : O K 7.7.4.7._ % @ 2 U <.7.4.7.7.7.4.7.7.^ i @ O K 7.7.7.7.7.7.7./ % = = Z J J J J J J J J J J J J J J J ",
"J J J J J J J J J J A % : # _ 7.4.4.7.%.1 % > $ t _ 7.7.7.7.7.%.d @ = > O ^ 7.4.4.7.7.7.7.=.2 % : M J J J J J J J J J J J J J J J ",
"J J J J J J J J J J m : % 1 -.7.7.7.7.7.Q : . O = ! 7.7.4.7.7.@.y . o O h 4.7.7.7.7.4.7.7.7.a + : z J J J J J J J J J J J J J J J ",
"J J J J J J J J J J l ; # p <.7.7.7.7.7.7...U R @.7.7.7.4.7.5.7.<.W I ( 7.7.7.7.4.7.7.7.7.7.j O ; q J J J J J J J J J J J J J J J ",
"J J J J J J J J J J c ; + d 4.7.4.7.7.7.7.7.7.7.7.4.7.7.7.7.7.7.7.7.7.7.4.7.7.7.7.7.7.7.4.7.U X ; e J J J J J J J J J J J J J J J ",
"J J J J J J J J J J z * O f 7.7.7.4.7.7.7.4.4.4.7.7.,.+.{  .:.7.7.7.4.4.7.7.7.5.7.7.7.7.4.7.T   : 0 J J J J J J J J J J J J J J J ",
"J J J J J J J J J J x ; O f 7.7.7.7.7.7.7.4.7.7.[ h t : % % 1 d W <.7.4.7.7.7.7.7.7.7.7.4.7.Y . : 0 J J J J J J J J J J J J J J J ",
"J J J J J J J J J J x ; O f 7.7.7.7.7.7.7.7.<.h % O % % - = % @ @ i O.7.7.7.7.7.7.7.7.6.3.7.U   : 0 J J J J J J J J J J J J J J J ",
"J J J J J J J J J J x * O f 7.7.4.7.7.4.7.:.a . > > : > > % : > : @ < { 7.4.7.5.7.7.7.7.4.7.T   : w J J J J J J J J J J J J J J J ",
"J J J J J J J J J J x ; $ g 7.7.7.7.7.7.7.f O > = = = = = = = = - > @ 2 =.7.7.7.7.7.7.7.4.7.Y   : 0 J J J J J J J J J J J J J J J ",
"J J J J J J J J J J x * @ f 7.7.4.7.4.7.E . > = = = = - - = = - = = : O f 7.7.7.7.7.7.7.4.7.Y . : 0 J J J J J J J J J J J J J J J ",
"J J J J J J J J H J z ; O f 7.7.7.7.7.<.u @ > = = = - : : = = : = = : - % [ 7.4.7.7.7.7.4.7.T . : w J J J J J J J J J J J J J J J ",
"J J J J J J J J J J x ; O f 7.7.7.4.7.[ = = = = = = = = - = = = : = = > @ L 7.4.6.7.7.7.4.7.T o : 0 J J J J J J J J J J J J J J J ",
"J J J J J J J J J J x ; O f 7.7.7.4.7.R @ : = = = = = = = = = = - = : > @ d 7.7.5.7.7.7.4.7.T   : w J J J J J J J J J J J J J J J ",
"J J J J J J J J J J x ; O f 7.7.7.7.7.K . = % % % % % % % % % % % % % % O i <.7.7.7.7.7.4.7.T   : 0 J J J J J J J J J J J J J J J ",
"J J J J J J J J J J x ; O f 7.7.7.5.7.+.) [ _ _ _ _ _ [ _ [ _ _ _ _ [ _ ) } 5.7.7.7.7.7.4.7.U   : w J J J J J J J J J J J J J J J ",
"J J J J J J J J J J x ; O f 7.4.7.7.7.7.7.7.7.7.7.7.7.7.7.7.7.7.7.7.7.7.7.7.7.7.7.7.7.7.3.7.T X : 0 J J J J J J J J J J J J J J J ",
"J J J J J J J J H J x * O f 7.7.7.7.7.4.7.4.4.4.7.4.4.4.4.4.4.4.4.4.7.5.5.5.7.7.7.7.7.7.5.7.Y   : 0 J J J J J J J J J J J J J J J ",
"J J J J J J J J J J z ; O f 7.7.7.7.7.7.7.7.7.7.7.7.7.7.7.7.7.7.7.7.7.7.7.7.7.7.7.7.7.7.4.7.Y   : 0 J J J J J J J J J J J J J J J ",
"J J J J J J J J J J x ; O f 7.7.7.7.7.7.7.7.7.7.7.7.7.7.7.7.7.7.7.7.7.7.7.7.7.7.7.7.7.7.4.7.Y   : w J J J J J J J J J J J J J J J ",
"J J J J J J J J J J x ; O f 7.7.7.7.7.7.7.7.7.7.7.7.7.7.7.7.7.7.7.7.7.7.7.7.7.7.7.7.7.7.3.7.Y   : 0 J J J J J J J J J J J J J J J ",
"J J J J J J J J J J z ; @ g 7.7.7.7.7.7.7.7.7.7.7.7.7.7.7.7.7.7.7.7.7.7.7.7.7.7.7.7.7.7.4.7.U   : w J J J J J J J J J J J J J J J ",
"J J J J J J J J J J z * @ f 7.7.4.7.7.7.7.7.7.7.7.7.7.7.7.7.7.7.7.7.7.7.7.7.7.7.7.7.7.7.4.7.T   : 0 J J J J J J J J J J J J J J J ",
"J J J J J J J J J J x * O f 7.7.7.7.7.7.7.7.7.7.7.7.7.7.7.7.7.7.7.7.7.7.7.7.7.7.7.7.7.7.4.7.Y   : 0 J J J J J J J J J J J J J J J ",
"J J J J J J J J J J x ; O f 7.7.7.7.7.7.7.7.7.7.7.7.7.7.7.7.7.7.7.7.7.7.7.7.7.7.7.7.7.7.4.7.Y   : 0 J J J J J J J J J J J J J J J ",
"J J J J J J J J J J z ; O f 7.7.7.7.7.4.4.7.7.7.7.7.7.7.7.7.7.7.7.7.7.7.7.4.7.7.7.7.7.7.4.7.T   : 0 J J J J J J J J J J J J J J J ",
"J J J J J J J J J J z * O f 7.7.7.7.7.7.7.4.4.4.4.7.7.7.7.7.7.7.7.7.7.4.7.4.4.7.7.7.7.7.4.7.T   : 0 J J J J J J J J J J J J J J J ",
"J J J J J J J J J J x ; O f 7.7.4.7.7.7.7.7.7.7.7.7.4.7.7.4.5.7.7.7.7.7.7.7.7.7.7.7.4.7.4.7.U   : w J J J J J J J J J J J J J J J ",
"J J J J J J J J J J x ; O f 7.4.7.7.7.7.7.=.T L U O.7.7.7.7.7.7.4.7.:.E L U [ 7.7.7.7.7.3.7.T X : 0 J J J J J J J J J J J J J J J ",
"J J J J J J J J J J x ; $ f 7.7.7.7.5.7.$.2 @ + @ , } 7.4.7.5.7.7.:.p O $ @ % ~ 7.4.5.7.4.7.U   : 0 J J J J J J J J J J J J J J J ",
"J J J J J J J J J J x * @ f 7.7.5.7.7.7.h o > : > O d 7.7.7.7.4.7.R X > : > @ i <.7.7.7.4.7.T X : 0 J J J J J J J J J J J J J J J ",
"J J J J J J J J J J x ; O f 7.7.7.7.7.7.s $ > - : $ 2 3.7.7.7.4.7.K @ : - - % 2 ;.7.4.7.4.7.U . : 0 J J J J J J J J J J J J J J J ",
"J J J J J J J J H J v ; % y >.7.4.4.7.;.2 % - 9 - = > X.7.5.5.7.7.a + ; e & = % { 7.4.7.7.7.f O : e J J J J J J J J J J J J J J J ",
"J J J J J J J J J J V = : # j 3.7.7.3.h + : - N 7 : % s >.7.7.7.K $ > ; B 0 ; % u @.7.7.7.E % = ; b J J J J J J J J J J J J J J J ",
"J J J J J J J J J J J 3 : % @ y f f y @ - * e J 5 ; - @ t f f i @ - ; 9 J l ; - @ 1 f g s % = = < A J J J J J J J J J J J J J J J ",
"J J J J J J J J J J J D & ; > # @ @ + > ; 8 A J H 0 * = % @ O % = : % V J J e * > % O O + - ; = n J J J J J J J J J J J J J J J J ",
"J J J J J J J J J J J J D 0 = ; * ; ; = 0 D J J J G e = ; ; ; ; : 9 Z J J J H 5 - ; * ; ; ; 8 B J J J J J J J J J J J J J J J J J ",
"J J J J J J J J J J J J J J m l x c l C J J H J J J J Z l b x c m G J J J J J J S M x b c B G J J J J J J J J J J J J J J J J J J ",
"J J J J J J J J J J J J H J J J J J J J J J J J J J J J J J J J J J J J J J H J J J J J J J J H J J J J J J J J J J J J J J J J J ",
"J J J J J J J J J J J J J J J J H J J J J J J J J J J H J J J J J J J J J J J J J H J J J J J J J J J J J J J J J J J J J J J J J ",
"J J J J J J J J J J J J J J J J J J J J J J J J J J J J J J J J J J J J J J J J J J J J J J J J J J J J J J J J J J J J J J J J J ",
"J J J J J J J J J J J J J J J J J J J J J J J J J J J J J J J J J J J J J J J J J J J J J J J J J J J J J J J J J J J J J J J J J ",
"J J J J J J J J J J J J J J J J J J J J J J J J J J J J J J J J J J J J J J J J J J J J J J J J J J J J J J J J J J J J J J J J J ",
"J J J J J J J J J J J J J J J J J J J J J J J J J J J J J J J J J J J J J J J J J J J J J J J J J J J J J J J J J J J J J J J J J ",
"J J J J J J J J J J J J J J J J J J J J J J J J J J J J J J J J J J J J J J J J J J J J J J J J J J J J J J J J J J J J J J J J J ",
"J J J J J J J J J J J J J J J J J J J J J J J J J J J J J J J J J J J J J J J J J J J J J J J J J J J J J J J J J J J J J J J J J "
};
