/* XPM */
static char *fbdc1deeb6574e609ff25512620f5520M3uBiNB9W0YGswA8[] = {
/* columns rows colors chars-per-pixel */
"65 65 153 2 ",
"   c #23172E",
".  c #241A2E",
"X  c #291D2E",
"o  c #301F2D",
"O  c #3C1F2B",
"+  c #1E2331",
"@  c #26202E",
"#  c #2C212D",
"$  c #31212D",
"%  c #3B242E",
"&  c #3D2D2D",
"*  c #252331",
"=  c #2C2333",
"-  c #2E273B",
";  c #2E293F",
":  c #322236",
">  c #332239",
",  c #7A151D",
"<  c #431D29",
"1  c #4B1C28",
"2  c #521B26",
"3  c #5A1A24",
"4  c #6C1720",
"5  c #621822",
"6  c #44212F",
"7  c #4A222F",
"8  c #45342E",
"9  c #4E342B",
"0  c #4E3B2E",
"q  c #533F2D",
"w  c #532630",
"e  c #582731",
"r  c #603F29",
"t  c #662230",
"y  c #6A2231",
"u  c #7B2231",
"i  c #56412E",
"p  c #5D402E",
"a  c #624129",
"s  c #6B4628",
"d  c #614C2D",
"f  c #6F4928",
"g  c #714A27",
"h  c #6C532D",
"j  c #725A2D",
"k  c #2F2B43",
"l  c #3B2345",
"z  c #3F244C",
"x  c #302F4C",
"c  c #3E3B4F",
"v  c #2C2F53",
"b  c #2F3153",
"n  c #313252",
"m  c #393750",
"M  c #3B3950",
"N  c #462B46",
"B  c #40244E",
"V  c #413E4F",
"C  c #53286F",
"Z  c #5E3560",
"A  c #582977",
"S  c #592978",
"D  c #4B454D",
"F  c #51494C",
"G  c #7D437D",
"H  c #9D0F15",
"J  c #83131B",
"K  c #8C1219",
"L  c #901118",
"P  c #B70B0F",
"I  c #BD0A0E",
"U  c #A50D13",
"Y  c #AA0D13",
"T  c #B10C10",
"R  c #951D33",
"E  c #AB1E34",
"W  c #892432",
"Q  c #9B2333",
"!  c #A52333",
"~  c #AE2434",
"^  c #B42434",
"/  c #C7080C",
"(  c #CA080B",
")  c #DB0507",
"_  c #D3070A",
"`  c #D90508",
"'  c #E30405",
"]  c #EC0203",
"[  c #F40101",
"{  c #FF0000",
"}  c #CA3538",
"|  c #CB3838",
" . c #DA3539",
".. c #E7363B",
"X. c #EA393B",
"o. c #EA3C3B",
"O. c #B14132",
"+. c #BC4233",
"@. c #98762D",
"#. c #9E7E2C",
"$. c #D35236",
"%. c #DF5036",
"&. c #ED5538",
"*. c #A5812C",
"=. c #A6832C",
"-. c #A7852C",
";. c #A8852C",
":. c #AB872C",
">. c #AC852C",
",. c #B28D2C",
"<. c #E58B1E",
"1. c #E7931F",
"2. c #EC931D",
"3. c #F2931D",
"4. c #F39A1F",
"5. c #F99A1D",
"6. c #FDA01D",
"7. c #CD9F2C",
"8. c #D2A42C",
"9. c #DCAB2C",
"0. c #DAAD30",
"q. c #DFB030",
"w. c #E1AF2C",
"e. c #E1B12E",
"r. c #E9B72C",
"t. c #EEB92C",
"y. c #F3BD2C",
"u. c #F6BD2C",
"i. c #F4BE2C",
"p. c #F5BE2C",
"a. c #FABF2A",
"s. c #E0AF30",
"d. c #EDB632",
"f. c #F6BE32",
"g. c #F6C02C",
"h. c #F7C02C",
"j. c #F8C12C",
"k. c #F9C22C",
"l. c #FBC32C",
"z. c #FDC52C",
"x. c #FFCC2B",
"c. c #FDC92C",
"v. c #FFCC2C",
"b. c #FFCF2C",
"n. c #FFD82B",
"m. c #F8C032",
"M. c #5B2880",
"N. c #612A85",
"B. c #662C8D",
"V. c #682E8E",
"C. c #642991",
"Z. c #682C91",
"A. c #824681",
/* pixels */
"{ { { { { { { { { { { { { { { { { { { { { { { { { { { { { { { { { { { { { { { { { { { { { { { { { { { { { { { { { { { { { { { { { ",
"{ { { { { { { { { { { { { { { { { { { { { { { { { { { { { { { { { { { { { { { { { { { { { { { { { { { { { { { { { { { { { { { { { ",
"{ { { { { { { { { { { { { { { { { { { { { { { { { { { { { { { { { { { { { { { { { { { { { { { { { { { { { { { { { { { { { { { { { ",
"{ { { { { { { { { { { { { { { { { { { { { { { { { { { { { { { { { { { { { { { { { { { { { { { { { { { { { { { { { { { { { { { { { ",
"{ { { { { { { { { { { { { { { { { { { { { { { { { { { { { { { { [ { { { { { { { { { { { { { { { { { { { { { { { { { { { { { { { { ",
"{ { { { { { { { { { { { { { { { { { { { { { { { { { { { { { { { { { { { { { { { { { { { { { { { { { { { { { { { { { { { { { { { { ",
"{ { { { { { { { { { { { { { { { { { { { { / I I I / I I P / I I / ' { { { { { { { { { { { { { { { { { { { { { { { { { { { { { { { ",
"{ { { { { { { { { { { { { { { { { { { ' 4 @ # # @ = @ = @ # = * # $ 3 L _ { { { { { { { { { { { { { { { { { { { { { { { { { { { { ",
"{ { { { { { { { { { { { { { { { { { { J + # X X @ @ # # @ @ # @ # @ = @ O K [ { { { { { { { { { { { { { { { { { { { { { { { { { { ",
"{ { { { { { { { { { { { { { { { { { [ 1 # $ w e e w 7 7 7 7 7 7 6 $ @ @ # * 3 ) { { { { { { { { { { { { { { { { { { { { { { { { { ",
"{ { { { { { { { { { { { { { { { { { ] O * $ | o.X. .~ ! ~ ~ ~ ~ ! Q u 7 # $ * 2 ' { { { { { { { { { { { { { { { { { { { { { { { { ",
"{ { { { { { { { { { { { { { { { { { ] < = . | o.o. .~ ~ ~ ~ ~ ~ ^ ^ ^ ! y # X * 5 [ { { { { { { { { { { { { { { { { { { { { { { { ",
"{ { { { { { { { { { { { { { { { { { ] < = $ } o.o. .! ~ ~ ~ ~ ~ ~ ~ ~ ~ ^ u # $ * H { { { { { { { { { { { { { { { { { { { { { { { ",
"{ { { { { { { { { { { { { { { { { { ] < @ $ } o.o. .~ ~ ~ ~ ~ ~ ~ ~ ~ ~ ~ ^ t # = < ' { { { { { { { { { { { { { { { { { { { { { { ",
"{ { { { { { { { { { { { { { { { { { [ < @ $ } o.o. .~ ~ ~ ~ ~ ~ ~ ~ ~ ^ ~ ~ Q % X @ Y { { { { { { { { { { { { { { { { { { { { { { ",
"{ { { { { { { { { { { { { { { { [ ' I % = $ | o.o. .~ ~ ~ ~ ~ ~ ~ ~ ~ ~ ~ ~ ^ t # # 4 { { { [ { { { { { { { { { { { { { { { { { { ",
"{ { { { { { { { { { { { { { ' K 2 $ $ # # $ | o.o. .! ~ ~ ~ ~ ^ ~ ~ ^ ~ ~ ^ ^ W # $ $ 2 K ' { { { { { { { { { { { { { { { { { { { ",
"{ { { { { { { { { { { [ { P 1 * # X . X X X } X... .E E E ~ E E ~ E E ~ ~ E E R X X X # = < T { { { { { { { { { { { { { { { { { { ",
"{ { { { { { { { { { { { Y # # X . $ 0 i q i $.&.&.%.+.+.+.+.+.+.+.+.+.+.+.+.+.O.a 0 $ . X # # Y { [ { { { { { { { { { { { { { { { ",
"{ { { { { { { { { { { ) O # . & @.9.u.g.y.u.u.u.g.t.g.g.g.i.i.i.y.y.y.u.y.u.g.k.u.f.w.@.8 X # O ) { { { { { { { { { { { { { { { { ",
"{ { { { { { { { { { { , * X 0 9.n.v.v.v.c.v.v.v.b.x.x.x.x.x.x.b.c.v.v.v.v.c.g.k.g.k.z.v.7.8 X = J { { { { { { { { { { { { { { { { ",
"{ { { { { { { { ] T U O # X j ,.-.=.=.-.-.;.;.;.-.-.-.-.-.-.-.-.-.;.;.-.:.9.c.g.g.k.g.y.c.>.. # < ] { { { { { { { { { { { { { { { ",
"{ { { { { { { / < * * # $ # X     . . . .       .     . .   .   . . .   . $ =.z.g.k.g.g.z.y.8 X @ ( { { { { { { { { { { { { { { { ",
"{ { { { { { [ 2 * $ .   . . . . . . . . . . . X . . . . . . @ @ . . X . # . $ 8.z.u.k.k.u.z.d   * Y { { { { { { { { { { { { { { { ",
"{ { { { { { _ # # $ d d d d d d p d d d p p d p d p d d p d d p p p r a & # . =.c.k.k.k.u.z.h   * U { [ { { { { { { { { { { { { { ",
"{ { { { { { ( $ = 8 g.x.z.z.c.c.v.c.c.c.c.c.n.x.b.x.x.b.c.c.x.x.c.6.5.6.g X . #.c.g.g.k.g.c.h   * Y { { { { { { { { { { { { { { { ",
"{ { { { { { _ $ X 8 t.k.u.z.z.z.z.z.g.z.k.l.k.z.l.l.l.l.l.l.g.g.y.4.2.5.f X . #.c.g.g.k.g.c.h   * Y { { { { { { { { { { { { { { { ",
"{ { { { { { _ $ X 8 y.k.y.s.s.s.q.q.q.q.q.q.q.q.q.q.q.q.q.q.g.g.u.4.3.5.f X   #.c.u.k.m.g.z.h . * Y { { { { { { { { { { { { { { { ",
"{ { { { { { _ # X 8 y.z.0.V m M M M c M M M c M c c M M m D q.z.u.4.3.5.f . . #.c.g.k.k.g.z.h   * Y { { { { { { { { { { { { { { { ",
"{ { { { { { _ : X 8 t.c.0.M v n b b b b b b b b b x b b b M q.z.u.4.3.5.f X . #.c.g.k.g.g.c.h . * Y { [ { { { { { { { { { { { { { ",
"{ { { { { { _ $ X 8 t.z.0.M v n b b b b b b b b b v b b b c q.g.u.3.3.5.f X . #.c.g.g.k.g.c.h   * Y { { { { { { { { { { { { { { { ",
"{ { { { { { _ # X 8 t.z.0.D M V c V V V V V V V c D M D c F q.z.u.5.2.5.f . . #.c.g.k.k.g.z.j @ * Y { [ { { { { { { { { { { { { { ",
"{ { { { { { _ : . 8 t.k.t.q.0.0.0.0.0.0.0.0.0.0.0.0.0.0.0.q.u.l.u.4.3.5.f X . #.c.g.k.g.g.c.h   @ Y { { { { { { { { { { { { { { { ",
"{ { { { { { _ $ X 8 t.z.g.l.k.z.z.k.k.c.k.k.z.z.c.l.k.z.l.z.g.g.u.4.3.5.f X . #.c.y.u.k.m.z.h   * Y { { { { { { { { { { { { { { { ",
"{ { { { { { _ # X 8 u.z.z.g.k.z.l.k.g.k.k.z.k.z.g.l.z.g.z.g.z.k.a.5.3.5.f *   #.v.g.z.m.k.c.h . * U { { { { { { { { { { { { { { { ",
"{ { { { { { _ $ X 8 q.t.r.r.r.r.r.r.r.r.r.r.r.r.r.r.r.r.r.r.r.r.r.1.<.2.s . . @.m.d.d.d.d.f.h . * Y { [ { { { { { { { { { { { { { ",
"{ { { { { { _ # # # 0 0 0 0 0 0 0 0 0 0 0 0 0 0 0 0 0 0 0 0 0 0 0 9 9 9 % # # Z A.G G A.G A.6 o * Y { { { { { { { { { { { { { { { ",
"{ { { { { { { 3 * = X X X = X X . # X X X @ # X X X X X X X X X X X X X . # : S C.B.C.M.C.C.z $ * Y { { { { { { { { { { { { { { { ",
"{ { { { { { { ) 3 $ $ # $ # # $ $ # # = # $ : # $ # # = # : # $ # : # $ # : C B.B.B.V.V.B.V.z o * Y { { { { { { { { { { { { { { { ",
"{ { { { { { { { ] ) K = # l S S A S S S A A A A S A A A S S S S A A S S S N.B.B.B.V.B.B.B.Z.> # * Y { [ { { { { { { { { { { { { { ",
"{ { { { { { { { { { U * # B Z.V.Z.Z.Z.Z.Z.Z.Z.Z.B.Z.Z.Z.Z.Z.Z.Z.B.Z.Z.Z.Z.B.B.B.B.Z.B.V.B.B.z $ * U { [ { { { { { { { { { { { { { ",
"{ { { { { { { { { { U * # B B.N.B.B.B.B.B.B.B.B.B.B.B.B.B.B.B.B.B.B.B.B.B.B.B.B.B.B.B.B.B.B.z X * Y { { { { { { { { { { { { { { { ",
"{ { { { { { { { { { U * # B V.V.B.B.B.B.B.B.B.B.B.B.B.B.B.B.B.B.B.B.B.B.B.B.B.B.B.V.B.B.B.B.l $ * U { { { { { { { { { { { { { { { ",
"{ { { { { { { { { { Y * # l V.V.V.B.B.B.B.B.B.B.B.B.B.B.B.B.B.B.B.B.B.B.B.B.B.B.B.B.B.V.B.B.N # * U { { { { { { { { { { { { { { { ",
"{ { { { { { { { { { U * @ z B.B.B.B.B.B.B.B.B.B.B.B.B.B.B.B.B.B.B.B.B.B.B.B.B.B.B.B.B.B.B.B.l # * Y { { { { { { { { { { { { { { { ",
"{ { { { { { { { { { U @ # z B.B.B.B.B.B.B.B.B.B.B.B.B.B.V.B.B.V.B.B.B.B.B.B.V.B.B.V.B.B.B.Z.l # - U { [ { { { { { { { { { { { { { ",
"{ { { { { { { { { { Y * # l B.B.B.B.B.B.B.B.B.B.B.B.B.B.B.B.B.B.B.B.B.B.B.B.B.B.V.B.B.B.B.Z.z # * U { { { { { { { { { { { { { { { ",
"{ { { { { { { { { { Y @ # B Z.B.B.B.Z.B.B.B.B.B.B.B.B.B.B.B.B.V.B.B.B.Z.B.B.B.B.B.B.B.B.B.Z.z # * U { { { { { { { { { { { { { { { ",
"{ { { { { { { { { { T @ # : B B B B B l B N z z z l z z z z z l B l B B z z B B z z z z z B : # * Y { { { { { { { { { { { { { { { ",
"{ { { { { { { { { { _ $ @ $ # # # # X # X X # # # # # # # # # # # # # # # # # @ # # # # X # # # $ ` { { { { { { { { { { { { { { { ",
"{ { { { { { { { { { { H $ @ @ @ = X = # # # # # # # @ # # = * = @ # $ # @ # # # X # # # # $ = o H { { { { { { { { { { { { { { { { ",
"{ { { { { { { { { { { { _ U U Y K O # # - k ; k k k : # @ 2 U H U 5 @ # : ; k k ; ; k # $ @ J ) { { { { { { { { { { { { { { { { { ",
"{ { { { { { { { [ { { { { { { { ' O # = n n n n n n k $ @ 4 { { { K * # ; n n n n n n = # # I { { { { { { { { { { { { { { { { { { ",
"{ { { { { { { { { { { { { { { { ) % # # x n n n n n k $ * 4 { [ { J @ $ - n m n n n x : $ * T { { { { { { { { { { { { { { { { { { ",
"{ { { { { { { { { { { { { { { { ) < # # x n n n n n k # * 4 { { { J * # ; n n n b m x = # = P { [ { { { { { { { { { { { { { { { { ",
"{ { { { { { { { { { { { { { { { ) % # : = = : = : = = $ @ 4 { { { K @ $ = = = = = - = = # # P { { { { { { { { { { { { { { { { { { ",
"{ { { { { { { { { { { { { { { { [ 3 * # X $ # # $ X # # * H { { { P @ # $ # $ $ # o $ X * O ] { { { { { { { { { { { { { { { { { { ",
"{ { { { { { { { { { { { { { { { { _ 1 * * @ * * * * * # , ] { { { { K $ * * * * * * * * O P { { { { { { { { { { { { { { { { { { { ",
"{ { { { { { { { { { { { { { { { { { ] P Y Y Y Y Y Y U ( { { { { { { { _ Y Y U Y Y Y U T ' { { { { { { { { { { { { { { { { { { { { ",
"{ { { { { { { { { { { { { { { { { { { { { { { { { { { { { { { { { { { { { { { { { { { { { { { { { { { { { { { { { { { { { { { { { ",
"{ { { { { { { { { { { { { { { { { { { { [ { { { { { { [ { { { { { { { { { { { [ { { [ { { { { { { { { { { { { { { { { { { { { { { ",
"{ { { { { { { { { { { { { { { { { { { { { { { { { { { { { { { { { { { { { { { { { { { { { { { { { { { { { { { { { { { { { { { { { ",
"{ { { { { { { { { { { { { { { { { { { { { { { { { { { { { { { { { { { { { { { { { { { { { { { { { { { { { { { { { { { { { { { { { ",
"{ { { { { { { { { { { { { { { { { { { { { { { { { { { { { { { { { { { { { { { { { { { { { { { { { { { { { { { { { { { { { { { { { ",
"{ { { { { { { { { { { { { { { { { { { { { { { { { { { { { { { { { { { { { { { { { { { { { { { { { { { { { { { { { { { { { { { { { "
};
