/* XPM */
static char *_784a8398a354f508529b5b8fa41b7f7tTT4CoEnreg87X9p[] = {
/* columns rows colors chars-per-pixel */
"65 65 147 2 ",
"   c #1F162E",
".  c #251A2E",
"X  c #2A1E2E",
"o  c #371F2C",
"O  c #3C1F2B",
"+  c #1D2432",
"@  c #26202D",
"#  c #2C212C",
"$  c #32222E",
"%  c #3C202B",
"&  c #37292D",
"*  c #382A2D",
"=  c #252331",
"-  c #2C2332",
";  c #2E273B",
":  c #2E283D",
">  c #322236",
",  c #6F171F",
"<  c #72151E",
"1  c #7C141C",
"2  c #4E1B26",
"3  c #431D29",
"4  c #481D28",
"5  c #531B26",
"6  c #5B1A24",
"7  c #691721",
"8  c #631822",
"9  c #41212E",
"0  c #4E212F",
"q  c #432F2C",
"w  c #44322D",
"e  c #51362A",
"r  c #513E2D",
"t  c #4F2530",
"y  c #532330",
"u  c #5D2230",
"i  c #6B2230",
"p  c #7A2532",
"a  c #5F4732",
"s  c #644C2D",
"d  c #67502E",
"f  c #69512D",
"g  c #795D2D",
"h  c #3C2446",
"j  c #3E244B",
"k  c #30304E",
"l  c #3C3A4F",
"z  c #242955",
"x  c #2B2E53",
"c  c #313252",
"v  c #3C3950",
"b  c #40244E",
"n  c #462559",
"m  c #48275A",
"M  c #4E2765",
"N  c #4F2768",
"B  c #562872",
"V  c #582977",
"C  c #4E474C",
"Z  c #564D4B",
"A  c #7A6644",
"S  c #9E0F15",
"D  c #83131B",
"F  c #8C1219",
"G  c #951017",
"H  c #B60B0F",
"J  c #BA0A0E",
"K  c #A70D13",
"L  c #AB0D12",
"P  c #B30C10",
"I  c #862933",
"U  c #852D34",
"Y  c #A52433",
"T  c #AD2434",
"R  c #B22434",
"E  c #CE070A",
"W  c #DC0507",
"Q  c #D50608",
"!  c #D80508",
"~  c #E50305",
"^  c #EC0204",
"/  c #F20102",
"(  c #FF0000",
")  c #C72E37",
"_  c #C92E37",
"`  c #DD393A",
"'  c #E73B3B",
"]  c #E93B3B",
"[  c #F13D3B",
"{  c #975F24",
"}  c #86692D",
"|  c #8A6A2D",
" . c #93722C",
".. c #92783F",
"X. c #AE6D23",
"o. c #B06E22",
"O. c #B67221",
"+. c #CB7C20",
"@. c #826C42",
"#. c #AA842C",
"$. c #B48B2C",
"%. c #BC922C",
"&. c #EF911D",
"*. c #F1921D",
"=. c #F7971C",
"-. c #FC9B1C",
";. c #FFA01B",
":. c #D48320",
">. c #C2972C",
",. c #CB972A",
"<. c #CD982D",
"1. c #E3982E",
"2. c #E5992E",
"3. c #ED9C2F",
"4. c #F29E30",
"5. c #CEA22C",
"6. c #D0A42C",
"7. c #D6A92C",
"8. c #D8AA2C",
"9. c #CAA234",
"0. c #D1A733",
"q. c #DAA43E",
"w. c #DEA93F",
"e. c #DFB030",
"r. c #EDAA25",
"t. c #F6AD25",
"y. c #E6B52C",
"u. c #EBB72D",
"i. c #EDBC2C",
"p. c #FEB324",
"a. c #F4BE2D",
"s. c #F6BF2C",
"d. c #E0B030",
"f. c #FFCE27",
"g. c #F6C02D",
"h. c #F7C02D",
"j. c #F8C12D",
"k. c #FAC32C",
"l. c #FCC42C",
"z. c #FEC92A",
"x. c #FFCE2B",
"c. c #FFC92C",
"v. c #FFCD2C",
"b. c #662C8D",
"n. c #692D8C",
"m. c #672C90",
"M. c #692C92",
/* pixels */
"( ( ( ( ( ( ( ( ( ( ( ( ( ( ( ( ( ( ( ( ( ( ( ( ( ( ( ( ( ( ( ( ( ( ( ( ( ( ( ( ( ( ( ( ( ( ( ( ( ( ( ( ( ( ( ( ( ( ( ( ( ( ( ( ( ",
"( ( ( ( ( ( ( ( ( ( ( ( ( ( ( ( ( ( ( ( ( ( ( ( ( ( ( ( ( ( ( ( ( ( ( ( ( ( ( ( ( ( ( ( ( ( ( ( ( ( ( ( ( ( ( ( ( ( ( ( ( ( ( ( ( ",
"( ( ( ( ( ( ( ( ( ( ( ( ( ( ( ( ( ( ( ( ( ( ( ( ( ( ( ( ( ( ( ( ( ( ( ( ( ( ( ( ( ( ( ( ( ( ( ( ( ( ( ( ( ( ( ( ( ( ( ( ( ( ( ( ( ",
"( ( ( ( ( ( ( ( ( ( ( ( ( ( ( ( ( ( ( ( ( ( ( ( ( ( ( ( ( ( ( ( ( ( ( ( ( ( ( ( ( ( ( ( ( ( ( ( ( ( ( ( ( ( ( ( ( ( ( ( ( ( ( ( ( ",
"( ( ( ( ( ( ( ( ( ( ( ( ( ( ( ( ( ( ( ( ( ( ( ( ( ( ( ( ( ( ( ( ( ( ( ( ( ( ( ( ( ( ( ( ( ( ( ( ( ( ( ( ( ( ( ( ( ( ( ( ( ( ( ( ( ",
"( ( ( ( ( ( ( ( ( ( ( ( ( ( ( ( ( ( ( ( ( ( ( ( ( ( ( ( ( / ( ( ( / ( ( ( ( ( ( ( ( ( ( ( ( ( ( ( ( ( ( ( ( ( ( ( ( ( ( ( ( ( ( ( ",
"( ( ( ( ( ( ( ( ( ( ( ( ( ( ( ( ( ( ( ( ( ( ( ( ( ( ( ( ( ( ( ( ( ( ( ( ( ( ( ( ( ( ( ( ( ( ( ( ( ( ( ( ( ( ( ( ( ( ( ( ( ( ( ( ( ",
"( ( ( ( ( ( ( ( ( ( ( ( ( ( ( ( ( ( ( ( ( ( ! L K L L L L L L L L L H Q ^ ( ( ( ( ( ( ( ( ( ( ( ( ( ( ( ( ( ( ( ( ( ( ( ( ( ( ( ( ",
"( ( ( ( ( ( ( ( ( ( ( ( ( ( ( ( ( ( ( ( ( H o = = @ - - = = - = = = # $ 2 F ~ ( ( ( ( ( ( ( ( ( ( ( ( ( ( ( ( ( ( ( ( ( ( ( ( ( ( ",
"( ( ( ( ( ( ( ( ( ( ( ( ( ( ( ( ( ( ( ( ^ 4 @ $ # @ @ # # # @ # # @ @ # # = 3 L ( ( ( ( ( ( ( ( ( ( ( ( ( ( ( ( ( ( ( ( ( ( ( ( ( ",
"( ( ( ( ( ( ( ( ( ( ( ( ( ( ( ( ( ( ( ( Q O . * U U U p i i i i i i u % X # = @ D ( ( ( ( ( ( ( ( ( ( ( ( ( ( ( ( ( ( ( ( ( ( ( ( ",
"( ( ( ( ( ( ( ( ( ( ( ( ( ( ( ( ( ( ( ( Q O @ 0 ] ] [ _ T R R R R R R T I 9 # $ + D ( ( ( ( ( ( ( ( ( ( ( ( ( ( ( ( ( ( ( ( ( ( ( ",
"( ( ( ( ( ( ( ( ( ( ( ( ( ( ( ( ( ( / ( Q $ @ t ` ' ' ) Y T T T T T T T R T u # # - P ( ( ( ( ( ( ( ( ( ( ( ( ( ( ( ( ( ( ( ( ( ( ",
"( ( ( ( ( ( ( ( ( ( ( ( ( ( ( ( ( ( ( ( Q o @ t ` ] ] ) T R T T T T T T T T R u . # 4 / ( ( ( ( ( ( ( ( ( ( ( ( ( ( ( ( ( ( ( ( ( ",
"( ( ( ( ( ( ( ( ( ( ( ( ( ( ( ( ( ( ( ( Q O @ t ' ] ] ) Y T T T T T T R T T T T 9 # = S ( / ( ( ( ( ( ( ( ( ( ( ( ( ( ( ( ( ( ( ( ",
"( ( ( ( ( ( ( ( ( ( ( ( ( ( ( ( ( ( ( ( ! o @ t ` ] ] ) T R T T T T T T T R T R p # = 5 ( ( ( ( ( ( ( ( ( ( ( ( ( ( ( ( ( ( ( ( ( ",
"( ( ( ( ( ( ( ( ( ( ( / ( ( ( ( ( ! K 1 8 $ @ t ` ] ] _ T T R T R T R T T R T T Y $ # $ G Q ( ( ( ( ( ( ( ( ( ( ( ( ( ( ( ( ( ( ( ",
"( ( ( ( ( ( ( ( ( ( ( ( ( ( ( ~ D % @ = = $ @ t ` ] ] _ T T T T T T T T T T T T R 0 # # @ > < ! ( ( ( ( ( ( ( ( ( ( ( ( ( ( ( ( ( ",
"( ( ( ( ( ( ( ( ( ( ( ( ( ( ~ 2 = # . . # # . t ` ] ] ) Y T T T T T T T T T T T R y . . . # = 3 Q ( / ( ( ( ( ( ( ( ( ( ( ( ( ( ( ",
"( ( ( ( ( ( ( ( ( ( ( ( ( ^ 5 @ X X f #.>.>.%.<.3.4.4.3.2.2.2.1.1.1.1.1.1.1.1.1.2.<.>.$.g $ o = 3 ~ ( ( ( ( ( ( ( ( ( ( ( ( ( ( ( ",
"( ( ( ( ( ( ( ( ( ( ( ( ( S - X & %.z.v.v.v.v.v.v.v.c.v.x.x.f.f.v.v.c.v.v.v.v.l.l.z.z.c.l.>.* X = 1 ( ( ( ( ( ( ( ( ( ( ( ( ( ( ( ",
"( ( ( ( ( ( ( ( ( ( ( ~ Q 5 # X } y.7.7.7.7.7.7.8.7.7.7.7.7.7.7.7.7.8.7.7.7.y.k.k.g.g.a.a.v.%.# # O W ( ( ( ( ( ( ( ( ( ( ( ( ( ( ",
"( ( ( ( ( ( ( ( ( ^ < % $ $ # # * & $ & & & * * & & & & & * # & & & * & * & w  .g.k.k.g.k.a.k.s . = H ( ( ( ( ( ( ( ( ( ( ( ( ( ( ",
"( ( ( ( ( ( ( ( ( 7 + # . . . . . . . . . . . . .   . . . .     . . . . . . .   #.c.a.k.k.g.l.| . # K ( ( ( ( ( ( ( ( ( ( ( ( ( ( ",
"( ( ( ( ( ( ( ( ~ O # $ r r r r r r r r r a r a r a r r a r r a r r r e e q # . f v.g.g.k.g.c.| . = K ( ( ( ( ( ( ( ( ( ( ( ( ( ( ",
"( ( ( ( ( ( ( ( ~ % . w y.a.i.i.i.i.i.i.i.a.y.i.y.i.g.y.i.g.y.g.i.i.r.&.=.X.. . d l.g.k.k.g.l.| . = K ( ( ( ( ( ( ( ( ( ( ( ( ( ( ",
"( ( ( ( ( ( ( ( ~ % @ w a.k.k.l.l.z.l.l.l.l.l.l.l.z.g.f.l.l.z.c.l.l.t.*.-.o.- . d c.h.k.k.h.l.| . = K ( ( ( ( ( ( ( ( ( ( ( ( ( ( ",
"( ( ( ( ( ( ( ( ~ % @ w u.k.a.d.d.d.d.d.d.e.y.e.e.e.e.8.e.e.e.y.g.g.t.*.-.X.. . d l.h.h.g.h.c.| X - K ( / ( ( ( ( ( ( ( ( ( ( ( ( ",
"( ( ( ( ( ( ( ( ~ 3 @ w u.c.9.v v l l l l l l l l l l l l l c @.l.g.t.*.-.o.# . f l.g.h.k.g.c.| . = K ( / ( ( ( ( ( ( ( ( ( ( ( ( ",
"( ( ( ( ( ( ( ( ~ 9 @ w u.z.9.x c c c c c c c c k k c c k c z A l.k.t.*.-.o.. . s c.k.k.g.k.l.| . # K ( ( ( ( ( ( ( ( ( ( ( ( ( ( ",
"( ( ( ( ( ( ( ( ~ O X w u.z.9.x x x x x x x x x x x x x x c z A l.l.t.*.-.X.# . f l.a.k.k.a.c.| . = L ( ( ( ( ( ( ( ( ( ( ( ( ( ( ",
"( ( ( ( ( ( ( ( ~ 9 . w u.z.0.Z Z Z Z Z Z Z Z Z Z Z Z Z Z Z C ..l.g.t.*.-.X.@ . f k.k.k.a.k.l.| . = K ( ( ( ( ( ( ( ( ( ( ( ( ( ( ",
"( ( ( ( ( ( ( ( ~ % @ w u.k.k.i.i.i.i.u.i.i.i.i.i.i.u.i.i.i.i.a.k.g.t.*.-.o.X . f z.g.k.k.a.l.| . = L ( / ( ( ( ( ( ( ( ( ( ( ( ( ",
"( ( ( ( ( ( ( ( ~ % @ w u.g.a.g.g.k.k.k.a.k.k.k.a.l.g.k.a.k.g.k.g.g.t.*.=.o.X . s l.g.g.g.g.z.| . = L ( ( ( ( ( ( ( ( ( ( ( ( ( ( ",
"( ( ( ( ( ( ( ( ~ 9 - w k.z.c.c.l.z.k.z.k.z.z.z.c.l.l.z.k.z.z.z.c.c.p.=.;.O.. . f f.z.z.c.l.x.| . = K ( ( ( ( ( ( ( ( ( ( ( ( ( ( ",
"( ( ( ( ( ( ( ( ~ 3 @ * ,.5.5.5.5.5.5.5.5.5.6.6.5.5.5.5.5.5.5.5.5.5.,.+.:.{ X . a w.q.q.q.q.w.g X = K ( ( ( ( ( ( ( ( ( ( ( ( ( ( ",
"( ( ( ( ( ( ( ( / 3 # # $ # - $ $ # $ $ # # $ # - $ $ $ # $ $ # $ # $ # > # # # b M.n.n.n.b.n.m # = K ( ( ( ( ( ( ( ( ( ( ( ( ( ( ",
"( ( ( ( ( ( ( ( ( G = = # - $ # # # # # @ # # # # # # # # X # # # # # X # # # # V m.n.b.b.b.m.n # = K ( ( ( ( ( ( ( ( ( ( ( ( ( ( ",
"( ( ( ( ( ( ( ( ( ( K 8 2 # # & h h h h h h h h h h h h h h h j h h h h h h j B b.b.b.n.b.b.m.m # @ L ( ( ( ( ( ( ( ( ( ( ( ( ( ( ",
"( ( ( ( ( ( ( ( ( ( ( ( H - # b b.b.b.b.b.b.b.b.b.b.b.b.b.b.b.b.b.b.b.b.b.b.b.b.b.b.n.b.b.b.M.n # @ K ( / ( ( ( ( ( ( ( ( ( ( ( ( ",
"( ( ( ( ( ( ( ( ( ( / ( P = # b b.b.b.b.m.b.b.m.b.b.b.b.M.b.b.b.b.b.b.b.b.b.b.b.b.M.b.b.b.b.m.n X = K ( ( ( ( ( ( ( ( ( ( ( ( ( ( ",
"( ( ( ( ( ( ( ( ( ( ( ( H = # b b.b.b.b.b.b.b.b.b.b.b.b.b.b.b.b.b.b.b.b.b.b.b.b.b.b.b.b.b.b.m.n # = K ( ( ( ( ( ( ( ( ( ( ( ( ( ( ",
"( ( ( ( ( ( ( ( ( ( ( ( P @ # b b.b.b.b.b.b.b.b.b.b.b.b.b.b.b.b.b.b.b.b.b.b.b.b.b.b.b.b.b.b.m.n # # K ( ( ( ( ( ( ( ( ( ( ( ( ( ( ",
"( ( ( ( ( ( ( ( ( ( ( ( P = # b m.b.b.b.b.b.b.b.b.b.b.b.b.b.b.b.b.b.b.b.b.b.b.b.b.b.b.b.b.b.M.n # = K ( / ( ( ( ( ( ( ( ( ( ( ( ( ",
"( ( ( ( ( ( ( ( ( ( ( ( P @ # b b.b.b.b.b.b.b.n.b.b.b.b.b.b.b.b.b.b.b.b.b.b.n.b.b.b.b.b.b.b.M.n # @ K ( / ( ( ( ( ( ( ( ( ( ( ( ( ",
"( ( ( ( ( ( ( ( ( ( / ( P @ # j b.b.b.b.b.b.b.b.n.b.n.b.b.b.b.b.b.b.b.b.b.n.b.b.b.b.b.b.b.b.M.n # @ K ( ( ( ( ( ( ( ( ( ( ( ( ( ( ",
"( ( ( ( ( ( ( ( ( ( ( ( P = # b M.M.M.M.M.M.m.M.M.M.M.M.b.M.m.M.b.n.M.M.M.M.M.M.M.M.M.M.M.b.M.m # = L ( ( ( ( ( ( ( ( ( ( ( ( ( ( ",
"( ( ( ( ( ( ( ( ( ( ( ( P - # h N M M M M M M M M M M M M M M M M M M M M M M M M M M M M M N j # = K ( ( ( ( ( ( ( ( ( ( ( ( ( ( ",
"( ( ( ( ( ( ( ( ( ( ( ( Q # - o X X # # # # # # # # # # # # # # # # # # # # # # # # # # # # # # # = J ( ( ( ( ( ( ( ( ( ( ( ( ( ( ",
"( ( ( ( ( ( ( ( ( ( ( ( ( D @ @ = = # # # # # # # # # # X # # # @ = @ $ # # # $ # # # # # - # # @ , ( ( ( ( ( ( ( ( ( ( ( ( ( ( ( ",
"( ( ( ( ( ( ( ( ( ( ( ( ( ( J F D F < X # $ : : : : ; ; - o - 7 F F 1 $ # # : : ; : : : - # # 5 H / ( ( ( ( ( ( ( ( ( ( ( ( ( ( ( ",
"( ( ( ( ( ( ( ( ( ( ( ( ( ( ( ( ( ( Q o # - c c c c c c ; X = P ( ( ~ O # - k c c c c c ; $ = F ( ( ( ( ( ( ( ( ( ( ( ( ( ( ( ( ( ",
"( ( ( ( ( ( ( ( ( ( ( ( ( ( ( ( ( ( E $ # - k k k k k c - $ = P ( ( W % - # k c c c c c : $ @ F ( ( ( ( ( ( ( ( ( ( ( ( ( ( ( ( ( ",
"( ( ( ( ( ( ( ( ( ( ( ( ( ( ( ( ( ( E # $ # > - - - > - - $ # J ( ( W O # # k c c k c c : X = F ( ( ( ( ( ( ( ( ( ( ( ( ( ( ( ( ( ",
"( ( ( ( ( ( ( ( ( ( ( ( ( ( ( ( ( ( / 5 = - # # # - # # # = 4 ~ ( ( ~ O # $ - ; > ; - > - o = F ( ( ( ( ( ( ( ( ( ( ( ( ( ( ( ( ( ",
"( ( ( ( ( ( ( ( ( ( ( ( ( ( ( ( ( ( ( ! 8 o $ o % $ % $ O 6 E ( ( ( ( 8 + $ # # # # # # # = # E ( ( / ( ( ( ( ( ( ( ( ( ( ( ( ( ( ",
"( ( ( ( ( ( ( ( ( ( ( ( ( ( ( ( ( ( ( ( / W Q Q Q Q Q Q W / ( ( ( ( ( W 6 X $ $ # # $ $ $ % K ( ( ( ( ( ( ( ( ( ( ( ( ( ( ( ( ( ( ",
"( ( ( ( ( ( ( ( ( ( ( ( ( ( ( ( ( ( ( ( ( ( ( ( ( ( ( ( ( ( ( ( ( ( ( ( ( Q E E E E E E E ^ ( ( ( ( ( ( ( ( ( ( ( ( ( ( ( ( ( ( ( ",
"( ( ( ( ( ( ( ( ( ( ( ( ( ( ( ( ( ( ( ( ( ( ( ( ( ( ( ( ( ( ( ( ( ( ( ( ( ( ( ( ( ( ( ( ( ( ( ( ( ( ( ( ( ( ( ( ( ( ( ( ( ( ( ( ( ",
"( ( ( ( ( ( ( ( ( ( ( ( ( ( ( ( ( ( ( ( ( ( ( ( ( ( ( ( ( ( ( ( ( ( ( ( ( ( ( ( ( ( ( ( ( ( ( ( ( ( ( ( ( ( ( ( ( ( ( ( ( ( ( ( ( ",
"( ( ( ( ( ( ( ( ( ( ( ( ( ( ( ( ( ( ( ( ( ( ( ( ( ( ( ( ( ( ( ( ( ( ( ( ( ( ( ( ( ( ( ( ( ( ( ( ( ( ( ( ( ( ( ( ( ( ( ( ( ( ( ( ( ",
"( ( ( ( ( ( ( ( ( ( ( ( ( ( ( ( ( ( ( ( ( ( ( ( ( ( ( ( ( ( ( ( ( ( ( ( ( ( ( ( ( ( ( ( ( ( ( ( ( ( ( ( ( ( ( ( ( ( ( ( ( ( ( ( ( ",
"( ( ( ( ( ( ( ( ( ( ( ( ( ( ( ( ( ( ( ( ( ( ( ( ( ( ( ( ( ( ( ( ( ( ( ( ( ( ( ( ( ( ( ( ( ( ( ( ( ( ( ( ( ( ( ( ( ( ( ( ( ( ( ( ( ",
"( ( ( ( ( ( ( ( ( ( ( ( ( ( ( ( ( ( ( ( ( ( ( ( ( ( ( ( ( ( ( ( ( ( ( ( ( ( ( ( ( ( ( ( ( ( ( ( ( ( ( ( ( ( ( ( ( ( ( ( ( ( ( ( ( ",
"( ( ( ( ( ( ( ( ( ( ( ( ( ( ( ( ( ( ( ( ( ( ( ( ( ( ( ( ( ( ( ( ( ( ( ( ( ( ( ( ( ( ( ( ( ( ( ( ( ( ( ( ( ( ( ( ( ( ( ( ( ( ( ( ( "
};
