/* XPM */
static char *_c4f4490fbbb4040d93810a3b27b2dadwjEctJuHlhaM0L0a[] = {
/* columns rows colors chars-per-pixel */
"65 65 148 2 ",
"   c #23172E",
".  c #241A2E",
"X  c #291D2E",
"o  c #331F2D",
"O  c #3C1F2B",
"+  c #1E2332",
"@  c #26202E",
"#  c #2C212D",
"$  c #31212D",
"%  c #3D212E",
"&  c #36282D",
"*  c #3C2C2D",
"=  c #252331",
"-  c #2C2332",
";  c #2E263A",
":  c #2E293E",
">  c #322236",
",  c #342239",
"<  c #6E171F",
"1  c #77151D",
"2  c #7D141C",
"3  c #4D1C27",
"4  c #431D29",
"5  c #491C28",
"6  c #531B25",
"7  c #5A1A24",
"8  c #661721",
"9  c #43212F",
"0  c #4A222F",
"q  c #45332E",
"w  c #4D332B",
"e  c #4E3B2E",
"r  c #533F2D",
"t  c #532630",
"y  c #582731",
"u  c #642230",
"i  c #6A2231",
"p  c #772231",
"a  c #56402E",
"s  c #58402E",
"d  c #644128",
"f  c #614C2D",
"g  c #6C532D",
"h  c #745B2D",
"j  c #2F2B42",
"k  c #3B2345",
"l  c #3F244C",
"z  c #302F4D",
"x  c #30304E",
"c  c #3E3B4F",
"v  c #2C2F53",
"b  c #2F3153",
"n  c #313253",
"m  c #393750",
"M  c #3B3950",
"N  c #462B46",
"B  c #40244E",
"V  c #413E4F",
"C  c #53286F",
"Z  c #582977",
"A  c #592978",
"S  c #623862",
"D  c #4B454D",
"F  c #51494C",
"G  c #7D437D",
"H  c #9F0F15",
"J  c #83131A",
"K  c #8C1219",
"L  c #941017",
"P  c #B60B0F",
"I  c #BE0A0E",
"U  c #A60D13",
"Y  c #A90D13",
"T  c #B40C10",
"R  c #941D33",
"E  c #AB1E34",
"W  c #B01E34",
"Q  c #882432",
"!  c #9B2333",
"~  c #A42333",
"^  c #AE2434",
"/  c #B42434",
"(  c #CE070A",
")  c #C3090D",
"_  c #CA080B",
"`  c #DB0507",
"'  c #D3070A",
"]  c #D90508",
"[  c #E30405",
"{  c #ED0203",
"}  c #F30102",
"|  c #FF0000",
" . c #CA3538",
".. c #CB3838",
"X. c #DA3539",
"o. c #E7363B",
"O. c #EA393B",
"+. c #EA3C3B",
"@. c #AB4131",
"#. c #BC4233",
"$. c #9B782D",
"%. c #D35236",
"&. c #DF5036",
"*. c #ED5538",
"=. c #A6842C",
"-. c #A8852C",
";. c #AE892C",
":. c #B18C2C",
">. c #A98430",
",. c #E78D1E",
"<. c #F3941D",
"1. c #F39A1F",
"2. c #FA9A1C",
"3. c #FAA01E",
"4. c #CC9E2C",
"5. c #D3A52C",
"6. c #DDAD2C",
"7. c #DAAD30",
"8. c #DFB030",
"9. c #E0AE2C",
"0. c #E1B12E",
"q. c #E9B72C",
"w. c #EEB92C",
"e. c #F5BD2B",
"r. c #F4BE2C",
"t. c #F6BF2C",
"y. c #FABF2A",
"u. c #E0AF30",
"i. c #E0B130",
"p. c #EDB632",
"a. c #F6BF32",
"s. c #F6C02C",
"d. c #F7C02C",
"f. c #FEC62B",
"g. c #F8C12C",
"h. c #F9C22C",
"j. c #FBC32C",
"k. c #FDC52C",
"l. c #FFCD2B",
"z. c #FDC82C",
"x. c #FFCC2C",
"c. c #FFD72B",
"v. c #612A85",
"b. c #662C8D",
"n. c #682E8E",
"m. c #642991",
"M. c #682C91",
"N. c #814581",
/* pixels */
"| | | | | | | | | | | | | | | | | | | | | | | | | | | | | | | | | | | | | | | | | | | | | | | | | | | | | | | | | | | | | | | | | ",
"| | | | | | | | | | | | | | | | | | | | | | | | | | | | | | | | | | | | | | | | | | | | | | | | | | | | | | | | | | | | | | | | | ",
"| | | | | | | | | | | | | | | | | | | | | | | | | | | | | | | | | | | | | | | | | | | | | | | | | | | | | | | | | | | | | | | | | ",
"| | | | | | | | | | | | | | | | | | | | | | | | | | | | | | | | | | | | | | | | | | | | | | | | | | | | | | | | | | | | | | | | | ",
"| | | | | | | | | | | | | | | | | | | | | | | | | | | | } | | | | } | | | | | | | | | | | | | | | | | | | | | | | | | | | | | | | ",
"| | | | | | | | | | | | | | | | | | | | | | | | | | | | | | | | | | | | | | | | | | | | | | | | | | | | | | | | | | | | | | | | | ",
"| | | | | | | | | | | | | | | | | | | | } _ P ) I I I I I I I I ) [ | | | | | | | | | | | | | | | | | | | | | | | | | | | | | | | ",
"| | | | | | | | | | | | | | | | | | | [ 8 # # # # - # - # - # # # $ 7 L ' | | | | | | | | | | | | | | | | | | | | | | | | | | | | ",
"| | | | | | | | | | | | | | | | | | | 2 + o X @ @ X # = # = # = # # = = O K } | | | | | | | | | | | | | | | | | | | | | | | | | | ",
"| | | | | | | | | | | | | | | | | | } 4 # # t y y t 0 4 0 0 0 0 9 $ # X # = 7 [ | | | | | | | | | | | | | | | | | | | | | | | | | ",
"| | | | | | | | | | | | | | | | | | { 4 = >  .+.o.X.^ ^ ^ ~ ^ ^ ^ ! p 9 # # = 6 [ | | | | | | | | | | | | | | | | | | | | | | | | ",
"| | | | | | | | | | | | | | | | | | { 4 # $  .+.+.X.^ ^ ^ / ^ ^ / / / ~ i X $ = 8 } | | | | | | | | | | | | | | | | | | | | | | | ",
"| | | | | | | | | | | | | | | | | | { 4 # $ ..+.+.X.~ ^ ^ ^ ^ ^ ^ ^ ^ ^ / p X $ @ H | | | | | | | | | | | | | | | | | | | | | | | ",
"| | | | | | | | | | | | | | | | | | { 4 @ > ..O.+.X.^ ^ ^ ^ ^ ^ ^ ^ ^ ^ ^ / u X # 3 { | | | | | | | | | | | | | | | | | | | | | | ",
"| | | | | | | | | | | | | | | | | | } 4 # # ..+.+.X.^ ^ ^ ^ / ^ ^ ^ ^ ^ ^ / ! % # # Y | } | | | | | | | | | | | | | | | | | | | | ",
"| | | | | | | | | | | | | | | | } ` I % # > ..+.+.X.^ ^ ^ ^ ^ ^ ^ ^ ^ ^ ^ ^ / u @ = < | | | | | | | | | | | | | | | | | | | | | | ",
"| | | | | | | | | } | | | | [ K 6 $ $ # # $ ..+.+.X.^ ^ ^ ^ ^ ^ ^ ^ ^ ^ / ^ / Q # $ # 6 K [ | | | | | | | | | | | | | | | | | | | ",
"| | | | | | | | | | | | | P 4 @ - X . X X X  .O.o.X.E E E ~ E E ^ E E ^ ~ E W R . . X # = 4 I | | | | | | | | | | | | | | | | | | ",
"| | | | | | | | | | | | Y = # X . & e a r s %.*.*.&.#.#.#.#.#.#.#.#.#.#.#.#.#.@.s e &   X # X P | | | | | | | | | | | | | | | | | ",
"| | | | | | | | | | | ] O # X * $.9.e.e.e.e.e.e.r.r.r.t.e.e.e.d.e.e.e.e.e.d.e.j.d.e.9.$.q X - O ] | | | | | | | | | | | | | | | | ",
"| | | | | | | | | | | 2 = X e 6.c.c.x.x.x.x.x.x.z.x.x.x.l.l.l.l.x.x.x.x.l.j.d.d.k.g.f.x.4.q X X J | | | | | | | | | | | | | | | | ",
"| | | | | | | | { P H 4 # X h :.$.-.-.=.-.-.-.-.-.-.-.-.-.=.-.-.-.-.-.-.-.6.z.j.d.d.d.t.z.-.X = 4 { | | | | | | | | | | | | | | | ",
"| | | | | | | ) 4 = = # $ $ X   . .             +               .       . $ =.f.d.g.d.d.j.w.q X # _ | | | | | | | | | | | | | | | ",
"| | | | | | } 3 = X . . . . . . . . = . . . . . . . . . . . . X . . . . # X > 5.f.d.g.d.t.g.f X = T | | | | | | | | | | | | | | | ",
"| | | | | | ' # # & f f f f f f f s f f f f f f f s f f f f f f s f d d * # X ;.z.g.g.g.a.f.g   = U | } | | | | | | | | | | | | | ",
"| | | | | | ( $ @ q d.z.z.f.z.z.z.z.x.x.z.f.z.z.z.z.x.x.z.z.z.z.j.3.<.<.d X X ;.z.g.g.g.d.z.g   = Y | | | | | | | | | | | | | | | ",
"| | | | | | ' $ . q w.g.t.j.j.f.f.g.k.g.j.j.k.g.j.j.j.j.j.j.d.d.y.1.<.<.d X X ;.f.g.g.g.d.z.g   = Y | | | | | | | | | | | | | | | ",
"| | | | | | ' $ X q t.g.e.u.u.7.i.8.i.i.8.8.0.6.i.i.i.i.8.0.e.j.y.1.<.<.d X X ;.z.g.g.g.d.f.g   = Y | | | | | | | | | | | | | | | ",
"| | | | | | ' > X q w.f.7.V m M c c c m c m m c c c c c x D u.j.e.1.<.<.d . @ ;.z.g.g.g.d.z.g . = Y | | | | | | | | | | | | | | | ",
"| | | | | | ' # X q t.f.7.m b b n v n b n b n b b v n n b V i.j.e.1.<.<.d X X ;.f.g.g.g.d.z.g . = Y | | | | | | | | | | | | | | | ",
"| | | | | | ( $ X q p.z.7.m v b b b b b b b b b b b b n v V 7.j.e.1.<.<.d . X ;.z.t.g.g.d.f.g . = Y | | | | | | | | | | | | | | | ",
"| | | | | | ' $ X q w.z.7.D V V V V V V V V V V V V c V c F u.j.e.1.<.<.d X X ;.z.d.g.g.d.z.g @ = Y | } | | | | | | | | | | | | | ",
"| | | | | | ' $ X q t.d.t.7.7.7.7.7.7.7.7.7.7.7.7.7.7.6.7.7.d.g.e.1.<.<.d X X ;.z.d.j.g.d.z.g   = Y | | | | | | | | | | | | | | | ",
"| | | | | | ' $ X q w.d.t.k.f.z.j.k.k.k.k.k.k.f.g.k.k.j.z.j.d.d.e.1.<.<.d X X ;.z.e.e.g.e.f.g   = Y | | | | | | | | | | | | | | | ",
"| | | | | | ' $ X q t.f.k.d.g.g.j.g.k.d.d.g.g.g.j.g.k.d.d.j.j.j.y.2.<.<.d X X ;.z.d.j.j.g.z.g   = Y | | | | | | | | | | | | | | | ",
"| | | | | | ' $ X q 0.q.q.q.q.q.q.q.q.q.q.q.q.q.q.q.q.q.q.q.q.q.q.,.,.,.s X X >.a.p.p.p.p.d.g . = Y | } | | | | | | | | | | | | | ",
"| | | | | | ' # - $ w e e e e e e e e e e e e e e e e e e e e e e w w w * # # S N.G G G N.n.q X = Y | | | | | | | | | | | | | | | ",
"| | | | | | | 6 = - X X X # = X X X X X X # @ @ @ X X X X X X X X X X X X # > A m.v.m.m.n.m.B o = Y | } | | | | | | | | | | | | | ",
"| | | | | | | ' 6 $ $ - $ # # $ - # - # # $ # $ - # - # # > $ X - # $ $ X , C b.n.n.n.n.n.n.N o = Y | | | | | | | | | | | | | | | ",
"| | | | | | | | } ] K # # k A A A Z Z Z A A A A A Z Z Z A A A Z A A A A A v.b.b.b.n.n.n.n.n., # = U | | | | | | | | | | | | | | | ",
"| | | | | | | | | | U = # B M.b.M.M.b.M.M.M.M.M.M.M.M.M.M.M.M.M.M.M.M.M.M.b.b.b.b.b.b.b.b.b.B X = Y | } | | | | | | | | | | | | | ",
"| | | | | | | | | | U = # B n.v.b.b.b.b.b.b.b.b.b.b.b.b.b.b.b.b.b.b.b.b.b.b.b.b.b.b.b.b.b.b.B o = Y | | | | | | | | | | | | | | | ",
"| | | | | | | | | | Y = # B n.b.b.b.b.b.b.b.b.b.b.b.b.b.b.b.b.b.b.b.b.b.b.b.b.b.b.n.b.b.b.b.k # = U | | | | | | | | | | | | | | | ",
"| | | | | | | | | | Y = # k n.n.b.b.b.b.b.b.b.b.b.b.b.b.b.b.b.b.b.b.b.b.b.b.b.b.b.b.b.n.b.n.k o = Y | | | | | | | | | | | | | | | ",
"| | | | | | | | | | H @ # l b.b.b.b.b.b.b.b.b.b.b.b.b.b.b.b.b.b.b.b.b.b.b.b.b.b.b.b.b.b.b.b.N X = U | | | | | | | | | | | | | | | ",
"| | | | | | | | | | U @ # l b.b.b.b.b.b.b.n.b.b.b.b.b.b.b.b.b.b.b.b.b.b.b.b.b.b.b.n.b.b.b.b.k # = U | | | | | | | | | | | | | | | ",
"| | | | | | | | | | U @ # l b.b.b.b.b.b.b.b.b.b.b.b.b.b.b.b.b.b.b.b.b.b.b.b.b.b.b.b.b.b.b.M.l # ; Y | | | | | | | | | | | | | | | ",
"| | | | | | | | | | U @ # l M.b.b.b.b.M.b.b.b.b.b.b.b.b.b.b.b.b.b.b.b.b.b.b.M.b.b.b.b.M.b.M.B # + U | } | | | | | | | | | | | | | ",
"| | | | | | | | | | Y = $ > l l k l l k l l l l l k B l N l l N l k l l l l l l l k l B l B > # = T | | | | | | | | | | | | | | | ",
"| | | | | | | | | | ' $ # X # # # o # X # # # # # @ # # X X X X # # # # @ # # # # # # X # X o = > ` | | | | | | | | | | | | | | | ",
"| | | | | | | | | | | H $ X # = = > $ # # # # # # # # # $ - = = @ # - $ # # # # # # # $ # # # $ H | | | | | | | | | | | | | | | | ",
"| | | | | | | | | | | | ' U H U K % # # ; j j j j j - # = 6 U U Y 7 # # - : j j j j j # # # J ` | | | | | | | | | | | | | | | | | ",
"| | | | | | | | | | | | | | | | ` O # # n n n n n n : $ = < | | | K = # : n n n n n n - # = ) | | | | | | | | | | | | | | | | | | ",
"| | | | | | | | | | | | | | | | ] % # # z n n n n n j # = < | } | J @ $ , n n x x x x - $ = T | | | | | | | | | | | | | | | | | | ",
"| | | | | | | | | } | | | | | | ` % # > x n n n n x j $ = 8 | | | K = # # - - - > - - $ X # ) | } | | | | | | | | | | | | | | | | ",
"| | | | | | | | | | | | | | | | ` % # # - > - - > ; - $ = < | | | ) # # # $ # # # # # # = 5 } | | | | | | | | | | | | | | | | | | ",
"| | | | | | | | | | | | | | | | } 7 @ o X $ # $ # o # # = H | | | | U 9 $ # $ # # $ # o 6 _ | | | | | | | | | | | | | | | | | | | ",
"| | | | | | | | | | | | | | | | | _ 4 = = @ = = = = = # 1 { | | | | | ` ) ) ) ) I I ) _ } | | | | | | | | | | | | | | | | | | | | ",
"| | | | | | | | | | | | | | | | | | { P U Y Y Y Y Y U _ | | | | | | | | | | | | | | | | | | | | | | | | | | | | | | | | | | | | | ",
"| | | | | | | | | | | | | | | | | | | | | | | | | | | | | | | | | | | | | | | | | | | | | | | | | | | | | | | | | | | | | | | | | ",
"| | | | | | | | | | | | | | | | | | | | } | | | | | } | | | | | | | | | | | | | | | | | | | | | | | | | | | | | | | | | | | | | | ",
"| | | | | | | | | | | | | | | | | | | | | | | | | | | | | | | | | | | | | | | | | | | | | | | | | | | | | | | | | | | | | | | | | ",
"| | | | | | | | | | | | | | | | | | | | | | | | | | | | | | | | | | | | | | | | | | | | | | | | | | | | | | | | | | | | | | | | | ",
"| | | | | | | | | | | | | | | | | | | | | | | | | | | | | | | | | | | | | | | | | | | | | | | | | | | | | | | | | | | | | | | | | ",
"| | | | | | | | | | | | | | | | | | | | | | | | | | | | | | | | | | | | | | | | | | | | | | | | | | | | | | | | | | | | | | | | | "
};
